<svg width="107" height="106" viewBox="0 0 107 106" fill="none" xmlns="http://www.w3.org/2000/svg">
<path fill-rule="evenodd" clip-rule="evenodd" d="M52.3554 0.00833385C52.6712 0.00278557 52.9876 0 53.3047 0C53.6218 0 53.9382 0.00278551 54.254 0.00833379C54.7605 0.0172323 55.1638 0.435011 55.1549 0.941469C55.146 1.44793 54.7282 1.85128 54.2218 1.84238C53.9167 1.83702 53.611 1.83433 53.3047 1.83433C52.9983 1.83433 52.6926 1.83702 52.3876 1.84238C51.8811 1.85128 51.4634 1.44793 51.4545 0.941469C51.4456 0.435011 51.8489 0.0172324 52.3554 0.00833385ZM47.7198 1.20499C47.7823 1.70765 47.4255 2.16583 46.9228 2.22836C46.3171 2.30371 45.7147 2.38964 45.1159 2.48596C44.6157 2.5664 44.1451 2.22618 44.0647 1.72608C43.9843 1.22597 44.3245 0.755343 44.8246 0.674908C45.445 0.575123 46.069 0.486109 46.6964 0.408063C47.199 0.345533 47.6572 0.70233 47.7198 1.20499ZM58.8896 1.20499C58.9522 0.70233 59.4103 0.345533 59.913 0.408064C60.5404 0.486109 61.1644 0.575123 61.7848 0.674908C62.2849 0.755343 62.6251 1.22597 62.5447 1.72608C62.4642 2.22618 61.9936 2.5664 61.4935 2.48596C60.8946 2.38964 60.2922 2.30371 59.6866 2.22836C59.1839 2.16583 58.8271 1.70765 58.8896 1.20499ZM40.4047 2.51868C40.5385 3.00724 40.2508 3.51172 39.7623 3.64546C39.1742 3.80645 38.5903 3.97767 38.0109 4.15891C37.5275 4.31014 37.013 4.04082 36.8618 3.55739C36.7106 3.07395 36.9799 2.55946 37.4633 2.40824C38.0637 2.22044 38.6686 2.04303 39.278 1.87623C39.7665 1.74248 40.271 2.03012 40.4047 2.51868ZM66.2047 2.51868C66.3384 2.03012 66.8429 1.74248 67.3314 1.87623C67.9408 2.04303 68.5457 2.22044 69.1461 2.40824C69.6295 2.55946 69.8988 3.07395 69.7476 3.55739C69.5964 4.04083 69.0819 4.31014 68.5985 4.15892C68.019 3.97767 67.4352 3.80645 66.8471 3.64546C66.3585 3.51172 66.0709 3.00724 66.2047 2.51868ZM33.353 4.86668C33.5554 5.33102 33.3431 5.87152 32.8787 6.07392C32.32 6.31748 31.7664 6.57073 31.2182 6.83346C30.7614 7.05239 30.2137 6.85958 29.9947 6.4028C29.7758 5.94602 29.9686 5.39824 30.4254 5.17931C30.9933 4.90712 31.5668 4.64474 32.1457 4.3924C32.6101 4.19 33.1506 4.40234 33.353 4.86668ZM73.2564 4.86668C73.4588 4.40234 73.9993 4.19 74.4636 4.3924C75.0425 4.64475 75.6161 4.90712 76.184 5.17932C76.6407 5.39825 76.8336 5.94602 76.6146 6.4028C76.3957 6.85958 75.8479 7.05239 75.3912 6.83346C74.843 6.57073 74.2894 6.31748 73.7307 6.07392C73.2663 5.87152 73.054 5.33102 73.2564 4.86668ZM26.7097 8.2003C26.9763 8.631 26.8433 9.19627 26.4126 9.46288C25.8945 9.78362 25.3825 10.1133 24.8769 10.4519C24.456 10.7336 23.8863 10.6209 23.6045 10.2C23.3227 9.77904 23.4355 9.20938 23.8564 8.92758C24.3801 8.57696 24.9104 8.23542 25.4471 7.9032C25.8778 7.63659 26.4431 7.76961 26.7097 8.2003ZM79.8997 8.2003C80.1663 7.76961 80.7315 7.63659 81.1622 7.9032C81.6989 8.23542 82.2293 8.57696 82.753 8.92758C83.1739 9.20938 83.2867 9.77904 83.0049 10.2C82.7231 10.6209 82.1534 10.7336 81.7325 10.4519C81.2269 10.1133 80.7149 9.78362 80.1968 9.46288C79.7661 9.19627 79.633 8.631 79.8997 8.2003ZM20.6087 12.4461C20.9337 12.8346 20.8823 13.4131 20.4938 13.7381C20.0265 14.129 19.5664 14.528 19.1136 14.935C18.7368 15.2737 18.157 15.2428 17.8183 14.866C17.4797 14.4893 17.5106 13.9094 17.8873 13.5708C18.3563 13.1493 18.8329 12.736 19.3167 12.3312C19.7052 12.0062 20.2837 12.0576 20.6087 12.4461ZM86.0007 12.4461C86.3257 12.0576 86.9041 12.0062 87.2926 12.3312C87.7765 12.736 88.2531 13.1493 88.722 13.5708C89.0988 13.9094 89.1296 14.4893 88.791 14.866C88.4524 15.2428 87.8725 15.2737 87.4958 14.935C87.043 14.528 86.5828 14.129 86.1156 13.7381C85.7271 13.4131 85.6757 12.8346 86.0007 12.4461ZM91.4387 17.5137C91.8154 17.175 92.3953 17.2059 92.7339 17.5827C93.1554 18.0516 93.5687 18.5282 93.9735 19.012C94.2985 19.4006 94.2471 19.979 93.8586 20.304C93.4701 20.629 92.8916 20.5776 92.5666 20.1891C92.1757 19.7219 91.7767 19.2617 91.3697 18.8089C91.031 18.4322 91.0619 17.8523 91.4387 17.5137ZM15.1707 17.5137C15.5474 17.8523 15.5783 18.4322 15.2397 18.8089C14.8327 19.2617 14.4337 19.7219 14.0428 20.1891C13.7178 20.5776 13.1393 20.629 12.7508 20.304C12.3623 19.979 12.3108 19.4005 12.6359 19.012C13.0407 18.5282 13.454 18.0516 13.8755 17.5827C14.2141 17.2059 14.794 17.175 15.1707 17.5137ZM10.5046 23.2998C10.9256 23.5816 11.0383 24.1513 10.7565 24.5722C10.418 25.0778 10.0883 25.5898 9.76757 26.1079C9.50096 26.5386 8.93569 26.6716 8.50499 26.405C8.0743 26.1384 7.94128 25.5732 8.20788 25.1425C8.54011 24.6058 8.88165 24.0754 9.23227 23.5517C9.51406 23.1308 10.0837 23.018 10.5046 23.2998ZM96.1047 23.2998C96.5257 23.018 97.0953 23.1308 97.3771 23.5517C97.7277 24.0754 98.0693 24.6058 98.4015 25.1425C98.6681 25.5732 98.5351 26.1384 98.1044 26.405C97.6737 26.6716 97.1084 26.5386 96.8418 26.1079C96.5211 25.5898 96.1913 25.0778 95.8528 24.5722C95.571 24.1513 95.6838 23.5816 96.1047 23.2998ZM6.70748 29.6901C7.16427 29.909 7.35708 30.4568 7.13815 30.9135C6.87542 31.4617 6.62217 32.0153 6.37861 32.574C6.17621 33.0384 5.6357 33.2507 5.17136 33.0483C4.70703 32.8459 4.49468 32.3054 4.69709 31.841C4.94943 31.2621 5.21181 30.6886 5.484 30.1207C5.70293 29.6639 6.2507 29.4711 6.70748 29.6901ZM99.9019 29.6901C100.359 29.4711 100.906 29.6639 101.125 30.1207C101.398 30.6886 101.66 31.2621 101.912 31.8411C102.115 32.3054 101.902 32.8459 101.438 33.0483C100.974 33.2507 100.433 33.0384 100.231 32.574C99.9872 32.0153 99.734 31.4617 99.4712 30.9135C99.2523 30.4568 99.4451 29.909 99.9019 29.6901ZM3.86208 36.5571C4.34551 36.7083 4.61483 37.2228 4.4636 37.7062C4.28236 38.2857 4.11114 38.8695 3.95015 39.4576C3.81641 39.9462 3.31193 40.2338 2.82337 40.1C2.33481 39.9663 2.04717 39.4618 2.18092 38.9733C2.34772 38.3639 2.52513 37.759 2.71293 37.1586C2.86415 36.6752 3.37864 36.4059 3.86208 36.5571ZM102.747 36.5571C103.231 36.4059 103.745 36.6752 103.896 37.1586C104.084 37.759 104.262 38.3639 104.428 38.9733C104.562 39.4618 104.275 39.9663 103.786 40.1C103.297 40.2338 102.793 39.9462 102.659 39.4576C102.498 38.8695 102.327 38.2857 102.146 37.7062C101.995 37.2228 102.264 36.7083 102.747 36.5571ZM2.03076 43.76C2.53087 43.8404 2.87108 44.3111 2.79065 44.8112C2.69433 45.4101 2.6084 46.0124 2.53305 46.6181C2.47052 47.1208 2.01234 47.4776 1.50968 47.4151C1.00702 47.3525 0.650221 46.8944 0.712751 46.3917C0.790797 45.7643 0.879811 45.1403 0.979595 44.5199C1.06003 44.0198 1.53065 43.6796 2.03076 43.76ZM104.579 43.76C105.079 43.6796 105.549 44.0198 105.63 44.5199C105.73 45.1403 105.819 45.7643 105.897 46.3917C105.959 46.8944 105.602 47.3525 105.1 47.4151C104.597 47.4776 104.139 47.1208 104.076 46.6181C104.001 46.0124 103.915 45.4101 103.819 44.8112C103.738 44.3111 104.079 43.8404 104.579 43.76ZM105.363 51.1498C105.87 51.1409 106.287 51.5442 106.296 52.0507C106.302 52.3665 106.305 52.6829 106.305 53C106.305 53.3171 106.302 53.6335 106.296 53.9493C106.287 54.4558 105.87 54.8591 105.363 54.8502C104.857 54.8413 104.453 54.4235 104.462 53.9171C104.468 53.612 104.47 53.3063 104.47 53C104.47 52.6937 104.468 52.388 104.462 52.0829C104.453 51.5765 104.857 51.1587 105.363 51.1498ZM1.24616 51.1498C1.75261 51.1587 2.15597 51.5765 2.14707 52.0829C2.14171 52.388 2.13902 52.6937 2.13902 53C2.13902 53.3063 2.14171 53.612 2.14707 53.9171C2.15597 54.4235 1.75261 54.8413 1.24616 54.8502C0.739699 54.8591 0.32192 54.4558 0.313021 53.9493C0.307473 53.6335 0.304688 53.3171 0.304688 53C0.304688 52.6829 0.307473 52.3665 0.313021 52.0507C0.32192 51.5442 0.739699 51.1409 1.24616 51.1498ZM1.50968 58.5849C2.01234 58.5224 2.47052 58.8792 2.53305 59.3819C2.6084 59.9876 2.69433 60.5899 2.79065 61.1888C2.87108 61.6889 2.53087 62.1596 2.03076 62.24C1.53065 62.3204 1.06003 61.9802 0.979595 61.4801C0.87981 60.8597 0.790797 60.2357 0.712751 59.6083C0.650221 59.1056 1.00702 58.6475 1.50968 58.5849ZM105.1 58.5849C105.602 58.6475 105.959 59.1056 105.897 59.6083C105.819 60.2357 105.73 60.8597 105.63 61.4801C105.549 61.9802 105.079 62.3204 104.579 62.24C104.079 62.1596 103.738 61.6889 103.819 61.1888C103.915 60.5899 104.001 59.9876 104.076 59.3819C104.139 58.8792 104.597 58.5224 105.1 58.5849ZM2.82337 65.9C3.31193 65.7662 3.8164 66.0538 3.95015 66.5424C4.11114 67.1305 4.28236 67.7143 4.4636 68.2938C4.61482 68.7772 4.34551 69.2917 3.86207 69.4429C3.37864 69.5941 2.86415 69.3248 2.71292 68.8414C2.52513 68.241 2.34772 67.6361 2.18091 67.0267C2.04717 66.5382 2.33481 66.0337 2.82337 65.9ZM103.786 65.9C104.275 66.0337 104.562 66.5382 104.428 67.0267C104.262 67.6361 104.084 68.241 103.896 68.8414C103.745 69.3248 103.231 69.5941 102.747 69.4429C102.264 69.2917 101.995 68.7772 102.146 68.2938C102.327 67.7144 102.498 67.1305 102.659 66.5424C102.793 66.0539 103.297 65.7662 103.786 65.9ZM5.17136 72.9517C5.6357 72.7493 6.17621 72.9616 6.37861 73.426C6.62217 73.9847 6.87542 74.5383 7.13815 75.0865C7.35708 75.5432 7.16426 76.091 6.70748 76.3099C6.2507 76.5289 5.70293 76.3361 5.484 75.8793C5.21181 75.3114 4.94943 74.7379 4.69709 74.159C4.49468 73.6946 4.70702 73.1541 5.17136 72.9517ZM101.438 72.9517C101.902 73.1541 102.115 73.6946 101.912 74.159C101.66 74.7379 101.398 75.3114 101.125 75.8793C100.906 76.3361 100.359 76.5289 99.9019 76.3099C99.4451 76.091 99.2523 75.5433 99.4712 75.0865C99.734 74.5383 99.9872 73.9847 100.231 73.426C100.433 72.9616 100.974 72.7493 101.438 72.9517ZM8.50499 79.595C8.93569 79.3284 9.50096 79.4614 9.76757 79.8921C10.0883 80.4102 10.418 80.9222 10.7565 81.4278C11.0383 81.8487 10.9256 82.4184 10.5046 82.7002C10.0837 82.982 9.51406 82.8692 9.23227 82.4483C8.88165 81.9246 8.54011 81.3942 8.20788 80.8575C7.94128 80.4268 8.0743 79.8616 8.50499 79.595ZM98.1044 79.595C98.5351 79.8616 98.6681 80.4268 98.4015 80.8575C98.0693 81.3942 97.7277 81.9246 97.3771 82.4483C97.0953 82.8692 96.5257 82.982 96.1047 82.7002C95.6838 82.4184 95.571 81.8487 95.8528 81.4278C96.1913 80.9222 96.5211 80.4102 96.8418 79.8921C97.1084 79.4614 97.6737 79.3284 98.1044 79.595ZM12.7508 85.696C13.1393 85.371 13.7178 85.4224 14.0428 85.8109C14.4337 86.2781 14.8327 86.7383 15.2397 87.1911C15.5783 87.5678 15.5475 88.1477 15.1707 88.4864C14.794 88.825 14.2141 88.7941 13.8755 88.4173C13.454 87.9484 13.0407 87.4718 12.6359 86.988C12.3108 86.5995 12.3623 86.021 12.7508 85.696ZM93.8586 85.696C94.2471 86.021 94.2985 86.5995 93.9735 86.988C93.5687 87.4718 93.1554 87.9484 92.7339 88.4173C92.3953 88.7941 91.8154 88.825 91.4387 88.4863C91.0619 88.1477 91.031 87.5678 91.3697 87.1911C91.7767 86.7383 92.1757 86.2781 92.5666 85.8109C92.8916 85.4224 93.4701 85.371 93.8586 85.696ZM88.791 91.134C89.1297 91.5107 89.0988 92.0906 88.722 92.4292C88.2531 92.8507 87.7765 93.264 87.2926 93.6688C86.9041 93.9938 86.3257 93.9424 86.0007 93.5539C85.6757 93.1654 85.7271 92.5869 86.1156 92.2619C86.5828 91.871 87.043 91.472 87.4958 91.065C87.8725 90.7263 88.4524 90.7572 88.791 91.134ZM17.8183 91.134C18.157 90.7572 18.7368 90.7263 19.1136 91.065C19.5664 91.472 20.0265 91.871 20.4938 92.2619C20.8823 92.5869 20.9337 93.1654 20.6087 93.5539C20.2837 93.9424 19.7052 93.9938 19.3167 93.6688C18.8329 93.264 18.3563 92.8507 17.8874 92.4292C17.5106 92.0906 17.4797 91.5107 17.8183 91.134ZM23.6045 95.8C23.8863 95.3791 24.456 95.2664 24.8769 95.5482C25.3825 95.8867 25.8945 96.2164 26.4126 96.5371C26.8433 96.8037 26.9763 97.369 26.7097 97.7997C26.4431 98.2304 25.8778 98.3634 25.4471 98.0968C24.9104 97.7646 24.3801 97.423 23.8564 97.0724C23.4355 96.7906 23.3227 96.221 23.6045 95.8ZM83.0049 95.8C83.2867 96.221 83.1739 96.7906 82.753 97.0724C82.2293 97.423 81.6989 97.7646 81.1622 98.0968C80.7315 98.3634 80.1663 98.2304 79.8997 97.7997C79.633 97.369 79.7661 96.8037 80.1968 96.5371C80.7149 96.2164 81.2269 95.8867 81.7325 95.5482C82.1534 95.2664 82.7231 95.3791 83.0049 95.8ZM29.9947 99.5972C30.2137 99.1404 30.7614 98.9476 31.2182 99.1665C31.7664 99.4293 32.32 99.6825 32.8787 99.9261C33.343 100.128 33.5554 100.669 33.353 101.133C33.1506 101.598 32.6101 101.81 32.1457 101.608C31.5668 101.355 30.9933 101.093 30.4254 100.821C29.9686 100.602 29.7758 100.054 29.9947 99.5972ZM76.6146 99.5972C76.8336 100.054 76.6407 100.602 76.184 100.821C75.6161 101.093 75.0425 101.355 74.4636 101.608C73.9993 101.81 73.4588 101.598 73.2564 101.133C73.054 100.669 73.2663 100.128 73.7307 99.9261C74.2894 99.6825 74.843 99.4293 75.3912 99.1665C75.8479 98.9476 76.3957 99.1404 76.6146 99.5972ZM36.8618 102.443C37.013 101.959 37.5275 101.69 38.0109 101.841C38.5903 102.022 39.1742 102.194 39.7623 102.355C40.2508 102.488 40.5385 102.993 40.4047 103.481C40.271 103.97 39.7665 104.258 39.278 104.124C38.6686 103.957 38.0637 103.78 37.4633 103.592C36.9799 103.441 36.7105 102.926 36.8618 102.443ZM69.7476 102.443C69.8988 102.926 69.6295 103.441 69.1461 103.592C68.5457 103.78 67.9408 103.957 67.3314 104.124C66.8429 104.258 66.3384 103.97 66.2046 103.481C66.0709 102.993 66.3585 102.488 66.8471 102.355C67.4352 102.194 68.019 102.022 68.5985 101.841C69.0819 101.69 69.5964 101.959 69.7476 102.443ZM44.0647 104.274C44.1451 103.774 44.6157 103.434 45.1159 103.514C45.7147 103.61 46.3171 103.696 46.9228 103.772C47.4255 103.834 47.7823 104.292 47.7198 104.795C47.6572 105.298 47.199 105.654 46.6964 105.592C46.069 105.514 45.445 105.425 44.8246 105.325C44.3245 105.245 43.9843 104.774 44.0647 104.274ZM62.5447 104.274C62.6251 104.774 62.2849 105.245 61.7848 105.325C61.1644 105.425 60.5404 105.514 59.913 105.592C59.4103 105.654 58.9521 105.298 58.8896 104.795C58.8271 104.292 59.1839 103.834 59.6866 103.772C60.2922 103.696 60.8946 103.61 61.4935 103.514C61.9936 103.434 62.4642 103.774 62.5447 104.274ZM51.4545 105.059C51.4634 104.552 51.8811 104.149 52.3876 104.158C52.6926 104.163 52.9983 104.166 53.3047 104.166C53.611 104.166 53.9167 104.163 54.2218 104.158C54.7282 104.149 55.146 104.552 55.1549 105.059C55.1638 105.565 54.7605 105.983 54.254 105.992C53.9382 105.997 53.6218 106 53.3047 106C52.9876 106 52.6712 105.997 52.3554 105.992C51.8489 105.983 51.4456 105.565 51.4545 105.059Z" fill="#38868F"/>
<path d="M61.6911 84.17L61.2811 82.47H58.9711L58.5511 84.17H56.7911L59.0711 77H61.1511L63.4411 84.17H61.6911ZM60.4611 79.54C60.4211 79.4 60.3811 79.2533 60.3411 79.1C60.3011 78.9467 60.2611 78.7867 60.2211 78.62C60.1877 78.4533 60.1544 78.2833 60.1211 78.11C60.0944 78.2833 60.0611 78.4567 60.0211 78.63C59.9811 78.7967 59.9411 78.9567 59.9011 79.11C59.8677 79.2633 59.8311 79.4067 59.7911 79.54L59.3311 81.2H60.9311L60.4611 79.54Z" fill="white"/>
<path d="M56.004 84.17H54.374V81.09H51.994V84.17H50.374V77.03H51.994V79.83H54.374V77.03H56.004V84.17Z" fill="white"/>
<path d="M47.2489 78.19C47.0089 78.19 46.7922 78.2467 46.5989 78.36C46.4122 78.4733 46.2522 78.6367 46.1189 78.85C45.9855 79.0567 45.8855 79.31 45.8189 79.61C45.7522 79.91 45.7189 80.2467 45.7189 80.62C45.7189 81.1267 45.7755 81.56 45.8889 81.92C46.0022 82.2733 46.1755 82.5433 46.4089 82.73C46.6422 82.9167 46.9389 83.01 47.2989 83.01C47.5855 83.01 47.8655 82.9767 48.1389 82.91C48.4189 82.8433 48.7089 82.75 49.0089 82.63V83.9C48.7155 84.0267 48.4189 84.12 48.1189 84.18C47.8189 84.24 47.4922 84.27 47.1389 84.27C46.4255 84.27 45.8422 84.12 45.3889 83.82C44.9355 83.5133 44.5989 83.0867 44.3789 82.54C44.1655 81.9867 44.0589 81.3433 44.0589 80.61C44.0589 80.07 44.1289 79.5767 44.2689 79.13C44.4089 78.6767 44.6155 78.2867 44.8889 77.96C45.1622 77.6333 45.4955 77.38 45.8889 77.2C46.2889 77.02 46.7455 76.93 47.2589 76.93C47.5922 76.93 47.9422 76.9767 48.3089 77.07C48.6822 77.1567 49.0055 77.2767 49.2789 77.43L48.7689 78.66C48.5222 78.5333 48.2722 78.4233 48.0189 78.33C47.7722 78.2367 47.5155 78.19 47.2489 78.19Z" fill="white"/>
<path d="M81.8123 70.43L80.3623 73.17H78.5423L80.4223 70.03C80.2423 69.95 80.0657 69.8333 79.8923 69.68C79.719 69.52 79.5757 69.31 79.4623 69.05C79.3557 68.7833 79.3023 68.4567 79.3023 68.07C79.3023 67.41 79.5257 66.9067 79.9723 66.56C80.4257 66.2067 81.0823 66.03 81.9423 66.03H84.1423V73.17H82.5323V70.43H81.8123ZM81.9823 67.27C81.7357 67.27 81.5357 67.3 81.3823 67.36C81.229 67.42 81.1157 67.5167 81.0423 67.65C80.9757 67.7833 80.9423 67.96 80.9423 68.18C80.9423 68.4933 81.0357 68.7433 81.2223 68.93C81.409 69.11 81.6757 69.2 82.0223 69.2H82.5323V67.27H81.9823Z" fill="white"/>
<path d="M71.5508 66.03H73.0308V69.48C73.0308 69.6467 73.0275 69.8333 73.0208 70.04C73.0208 70.2467 73.0174 70.45 73.0108 70.65C73.0041 70.8433 72.9975 71.0133 72.9908 71.16C72.9841 71.3 72.9741 71.3967 72.9608 71.45H73.0008L75.9308 66.03H77.8208V73.17H76.3408V69.74C76.3408 69.56 76.3441 69.3633 76.3508 69.15C76.3574 68.93 76.3641 68.72 76.3708 68.52C76.3774 68.32 76.3841 68.1467 76.3908 68C76.4041 67.8467 76.4141 67.7467 76.4208 67.7H76.3908L73.4508 73.17H71.5508V66.03Z" fill="white"/>
<path d="M69.9737 73.17H68.3438V70.09H65.9638V73.17H64.3438V66.03H65.9638V68.83H68.3438V66.03H69.9737V73.17Z" fill="white"/>
<path d="M63.0489 73.17H59.1289V66.03H63.0489V67.27H60.7489V68.84H62.8889V70.08H60.7489V71.92H63.0489V73.17Z" fill="white"/>
<path d="M57.5534 73.17H48.9434V66.03H50.5634V71.91H52.4434V66.03H54.0534V71.91H55.9334V66.03H57.5534V73.17Z" fill="white"/>
<path d="M46.1348 71.09C45.9481 71.55 45.7448 71.9433 45.5248 72.27C45.3048 72.5967 45.0281 72.8467 44.6948 73.02C44.3614 73.1867 43.9214 73.27 43.3748 73.27C43.2148 73.27 43.0314 73.2567 42.8248 73.23C42.6181 73.2033 42.4281 73.1667 42.2548 73.12V71.78C42.4148 71.8467 42.5881 71.8933 42.7748 71.92C42.9614 71.9467 43.1348 71.96 43.2948 71.96C43.4881 71.96 43.6514 71.9267 43.7848 71.86C43.9181 71.7933 44.0281 71.7067 44.1148 71.6C44.2014 71.4867 44.2714 71.36 44.3248 71.22L41.9448 66.03H43.6748L44.7648 68.74C44.8181 68.8667 44.8648 68.9933 44.9048 69.12C44.9514 69.2467 44.9914 69.3733 45.0248 69.5C45.0648 69.62 45.0981 69.7433 45.1248 69.87H45.1748C45.2081 69.75 45.2414 69.6267 45.2748 69.5C45.3148 69.3667 45.3548 69.2367 45.3948 69.11C45.4414 68.9767 45.4881 68.8467 45.5348 68.72L46.5148 66.03H48.2148L46.1348 71.09Z" fill="white"/>
<path d="M38.937 66.03C39.797 66.03 40.4304 66.23 40.837 66.63C41.2504 67.0233 41.457 67.5667 41.457 68.26C41.457 68.5733 41.4137 68.8733 41.327 69.16C41.2404 69.44 41.097 69.6933 40.897 69.92C40.697 70.14 40.4304 70.3133 40.097 70.44C39.7704 70.5667 39.367 70.63 38.887 70.63H38.327V73.17H36.707V66.03H38.937ZM38.887 67.27H38.327V69.39H38.737C38.9504 69.39 39.1404 69.3533 39.307 69.28C39.4737 69.2067 39.6037 69.09 39.697 68.93C39.7904 68.77 39.837 68.5633 39.837 68.31C39.837 67.9567 39.757 67.6967 39.597 67.53C39.4437 67.3567 39.207 67.27 38.887 67.27Z" fill="white"/>
<path d="M34.1666 73.17L33.7566 71.47H31.4466L31.0266 73.17H29.2666L31.5466 66H33.6266L35.9166 73.17H34.1666ZM32.9366 68.54C32.8966 68.4 32.8566 68.2533 32.8166 68.1C32.7766 67.9467 32.7366 67.7867 32.6966 67.62C32.6633 67.4533 32.63 67.2833 32.5966 67.11C32.57 67.2833 32.5366 67.4567 32.4966 67.63C32.4566 67.7967 32.4166 67.9567 32.3766 68.11C32.3433 68.2633 32.3066 68.4067 32.2666 68.54L31.8066 70.2H33.4066L32.9366 68.54Z" fill="white"/>
<path d="M28.4796 73.17H26.8496V70.09H24.4696V73.17H22.8496V66.03H24.4696V68.83H26.8496V66.03H28.4796V73.17Z" fill="white"/>
<mask id="mask0_3024_2641" style="mask-type:luminance" maskUnits="userSpaceOnUse" x="35" y="20" width="37" height="36">
<path d="M71.3047 20H35.3047V56H71.3047V20Z" fill="white"/>
</mask>
<g mask="url(#mask0_3024_2641)">
<path d="M60.3165 47.0544C53.3336 47.0544 47.6728 41.3936 47.6728 34.4107C47.6728 30.047 49.8834 26.1996 53.2458 23.9273C52.8561 23.899 52.4626 23.8843 52.0656 23.8843C43.1971 23.8843 36.0078 31.0736 36.0078 39.9422C36.0078 48.8107 43.1971 56 52.0656 56C59.193 56 65.2358 51.3563 67.3338 44.9293C65.326 46.2714 62.9128 47.0544 60.3165 47.0544Z" fill="white"/>
<path d="M66.2041 26.6099L70.1417 20H62.9372V22.1094H66.4298L62.4922 28.7192H70.6012V26.6099H66.2041Z" fill="white"/>
<path d="M60.1782 28.0337H53.6637V30.1431H56.4663L53.4277 35.2437H60.109V33.1344H57.1396L60.1782 28.0337Z" fill="white"/>
<path d="M64.1025 40.0221L66.0258 36.7937H60.5825V38.9031H62.3139L60.3906 42.1315H66.102V40.0221H64.1025Z" fill="white"/>
</g>
</svg>
