<svg width="24" height="24" viewBox="0 0 24 24" fill="none" xmlns="http://www.w3.org/2000/svg">
<path fill-rule="evenodd" clip-rule="evenodd" d="M12.002 2.75C8.58524 2.74769 5.24338 4.73032 4.35016 8.65591C3.2931 13.3261 6.18682 17.3762 8.90893 19.9997C10.6394 21.661 13.3594 21.659 15.0779 20.0004L15.0793 19.999C17.8112 17.3756 20.7044 13.3354 19.6472 8.6656L19.6472 8.66556C18.7587 4.73971 15.4189 2.75231 12.002 2.75ZM21.1102 8.33441C20.0387 3.60029 15.9835 1.25269 12.003 1.25C8.02236 1.24731 3.96435 3.58953 2.88742 8.32364L2.88725 8.32441C1.64454 13.8139 5.07053 18.3836 7.86828 21.08L7.86923 21.0809C10.1786 23.2989 13.8179 23.3008 16.1192 21.08C18.9271 18.3834 22.3529 13.8239 21.1102 8.33441ZM11.9987 7.94C10.6898 7.94 9.62874 9.00109 9.62874 10.31C9.62874 11.6189 10.6898 12.68 11.9987 12.68C13.3077 12.68 14.3687 11.6189 14.3687 10.31C14.3687 9.00109 13.3077 7.94 11.9987 7.94ZM8.12874 10.31C8.12874 8.17266 9.86139 6.44 11.9987 6.44C14.1361 6.44 15.8687 8.17266 15.8687 10.31C15.8687 12.4473 14.1361 14.18 11.9987 14.18C9.8614 14.18 8.12874 12.4473 8.12874 10.31Z" fill="#2A5199"/>
</svg>
