<svg width="107" height="106" viewBox="0 0 107 106" fill="none" xmlns="http://www.w3.org/2000/svg">
<path fill-rule="evenodd" clip-rule="evenodd" d="M52.3554 0.00833385C52.6712 0.00278557 52.9876 0 53.3047 0C53.6218 0 53.9382 0.00278551 54.254 0.00833379C54.7605 0.0172323 55.1638 0.435011 55.1549 0.941469C55.146 1.44793 54.7282 1.85128 54.2218 1.84238C53.9167 1.83702 53.611 1.83433 53.3047 1.83433C52.9983 1.83433 52.6926 1.83702 52.3876 1.84238C51.8811 1.85128 51.4634 1.44793 51.4545 0.941469C51.4456 0.435011 51.8489 0.0172324 52.3554 0.00833385ZM47.7198 1.20499C47.7823 1.70765 47.4255 2.16583 46.9228 2.22836C46.3171 2.30371 45.7147 2.38964 45.1159 2.48596C44.6157 2.5664 44.1451 2.22618 44.0647 1.72608C43.9843 1.22597 44.3245 0.755343 44.8246 0.674908C45.445 0.575123 46.069 0.486109 46.6964 0.408063C47.199 0.345533 47.6572 0.70233 47.7198 1.20499ZM58.8896 1.20499C58.9522 0.70233 59.4103 0.345533 59.913 0.408064C60.5404 0.486109 61.1644 0.575123 61.7848 0.674908C62.2849 0.755343 62.6251 1.22597 62.5447 1.72608C62.4642 2.22618 61.9936 2.5664 61.4935 2.48596C60.8946 2.38964 60.2922 2.30371 59.6866 2.22836C59.1839 2.16583 58.8271 1.70765 58.8896 1.20499ZM40.4047 2.51868C40.5385 3.00724 40.2508 3.51172 39.7623 3.64546C39.1742 3.80645 38.5903 3.97767 38.0109 4.15891C37.5275 4.31014 37.013 4.04082 36.8618 3.55739C36.7106 3.07395 36.9799 2.55946 37.4633 2.40824C38.0637 2.22044 38.6686 2.04303 39.278 1.87623C39.7665 1.74248 40.271 2.03012 40.4047 2.51868ZM66.2047 2.51868C66.3384 2.03012 66.8429 1.74248 67.3314 1.87623C67.9408 2.04303 68.5457 2.22044 69.1461 2.40824C69.6295 2.55946 69.8988 3.07395 69.7476 3.55739C69.5964 4.04083 69.0819 4.31014 68.5985 4.15892C68.019 3.97767 67.4352 3.80645 66.8471 3.64546C66.3585 3.51172 66.0709 3.00724 66.2047 2.51868ZM33.353 4.86668C33.5554 5.33102 33.3431 5.87152 32.8787 6.07392C32.32 6.31748 31.7664 6.57073 31.2182 6.83346C30.7614 7.05239 30.2137 6.85958 29.9947 6.4028C29.7758 5.94602 29.9686 5.39824 30.4254 5.17931C30.9933 4.90712 31.5668 4.64474 32.1457 4.3924C32.6101 4.19 33.1506 4.40234 33.353 4.86668ZM73.2564 4.86668C73.4588 4.40234 73.9993 4.19 74.4636 4.3924C75.0425 4.64475 75.6161 4.90712 76.184 5.17932C76.6407 5.39825 76.8336 5.94602 76.6146 6.4028C76.3957 6.85958 75.8479 7.05239 75.3912 6.83346C74.843 6.57073 74.2894 6.31748 73.7307 6.07392C73.2663 5.87152 73.054 5.33102 73.2564 4.86668ZM26.7097 8.2003C26.9763 8.631 26.8433 9.19627 26.4126 9.46288C25.8945 9.78362 25.3825 10.1133 24.8769 10.4519C24.456 10.7336 23.8863 10.6209 23.6045 10.2C23.3227 9.77904 23.4355 9.20938 23.8564 8.92758C24.3801 8.57696 24.9104 8.23542 25.4471 7.9032C25.8778 7.63659 26.4431 7.76961 26.7097 8.2003ZM79.8997 8.2003C80.1663 7.76961 80.7315 7.63659 81.1622 7.9032C81.6989 8.23542 82.2293 8.57696 82.753 8.92758C83.1739 9.20938 83.2867 9.77904 83.0049 10.2C82.7231 10.6209 82.1534 10.7336 81.7325 10.4519C81.2269 10.1133 80.7149 9.78362 80.1968 9.46288C79.7661 9.19627 79.633 8.631 79.8997 8.2003ZM20.6087 12.4461C20.9337 12.8346 20.8823 13.4131 20.4938 13.7381C20.0265 14.129 19.5664 14.528 19.1136 14.935C18.7368 15.2737 18.157 15.2428 17.8183 14.866C17.4797 14.4893 17.5106 13.9094 17.8873 13.5708C18.3563 13.1493 18.8329 12.736 19.3167 12.3312C19.7052 12.0062 20.2837 12.0576 20.6087 12.4461ZM86.0007 12.4461C86.3257 12.0576 86.9041 12.0062 87.2926 12.3312C87.7765 12.736 88.2531 13.1493 88.722 13.5708C89.0988 13.9094 89.1296 14.4893 88.791 14.866C88.4524 15.2428 87.8725 15.2737 87.4958 14.935C87.043 14.528 86.5828 14.129 86.1156 13.7381C85.7271 13.4131 85.6757 12.8346 86.0007 12.4461ZM91.4387 17.5137C91.8154 17.175 92.3953 17.2059 92.7339 17.5827C93.1554 18.0516 93.5687 18.5282 93.9735 19.012C94.2985 19.4006 94.2471 19.979 93.8586 20.304C93.4701 20.629 92.8916 20.5776 92.5666 20.1891C92.1757 19.7219 91.7767 19.2617 91.3697 18.8089C91.031 18.4322 91.0619 17.8523 91.4387 17.5137ZM15.1707 17.5137C15.5474 17.8523 15.5783 18.4322 15.2397 18.8089C14.8327 19.2617 14.4337 19.7219 14.0428 20.1891C13.7178 20.5776 13.1393 20.629 12.7508 20.304C12.3623 19.979 12.3108 19.4005 12.6359 19.012C13.0407 18.5282 13.454 18.0516 13.8755 17.5827C14.2141 17.2059 14.794 17.175 15.1707 17.5137ZM10.5046 23.2998C10.9256 23.5816 11.0383 24.1513 10.7565 24.5722C10.418 25.0778 10.0883 25.5898 9.76757 26.1079C9.50096 26.5386 8.93569 26.6716 8.50499 26.405C8.0743 26.1384 7.94128 25.5732 8.20788 25.1425C8.54011 24.6058 8.88165 24.0754 9.23227 23.5517C9.51406 23.1308 10.0837 23.018 10.5046 23.2998ZM96.1047 23.2998C96.5257 23.018 97.0953 23.1308 97.3771 23.5517C97.7277 24.0754 98.0693 24.6058 98.4015 25.1425C98.6681 25.5732 98.5351 26.1384 98.1044 26.405C97.6737 26.6716 97.1084 26.5386 96.8418 26.1079C96.5211 25.5898 96.1913 25.0778 95.8528 24.5722C95.571 24.1513 95.6838 23.5816 96.1047 23.2998ZM6.70748 29.6901C7.16427 29.909 7.35708 30.4568 7.13815 30.9135C6.87542 31.4617 6.62217 32.0153 6.37861 32.574C6.17621 33.0384 5.6357 33.2507 5.17136 33.0483C4.70703 32.8459 4.49468 32.3054 4.69709 31.841C4.94943 31.2621 5.21181 30.6886 5.484 30.1207C5.70293 29.6639 6.2507 29.4711 6.70748 29.6901ZM99.9019 29.6901C100.359 29.4711 100.906 29.6639 101.125 30.1207C101.398 30.6886 101.66 31.2621 101.912 31.8411C102.115 32.3054 101.902 32.8459 101.438 33.0483C100.974 33.2507 100.433 33.0384 100.231 32.574C99.9872 32.0153 99.734 31.4617 99.4712 30.9135C99.2523 30.4568 99.4451 29.909 99.9019 29.6901ZM3.86208 36.5571C4.34551 36.7083 4.61483 37.2228 4.4636 37.7062C4.28236 38.2857 4.11114 38.8695 3.95015 39.4576C3.81641 39.9462 3.31193 40.2338 2.82337 40.1C2.33481 39.9663 2.04717 39.4618 2.18092 38.9733C2.34772 38.3639 2.52513 37.759 2.71293 37.1586C2.86415 36.6752 3.37864 36.4059 3.86208 36.5571ZM102.747 36.5571C103.231 36.4059 103.745 36.6752 103.896 37.1586C104.084 37.759 104.262 38.3639 104.428 38.9733C104.562 39.4618 104.275 39.9663 103.786 40.1C103.297 40.2338 102.793 39.9462 102.659 39.4576C102.498 38.8695 102.327 38.2857 102.146 37.7062C101.995 37.2228 102.264 36.7083 102.747 36.5571ZM2.03076 43.76C2.53087 43.8404 2.87108 44.3111 2.79065 44.8112C2.69433 45.4101 2.6084 46.0124 2.53305 46.6181C2.47052 47.1208 2.01234 47.4776 1.50968 47.4151C1.00702 47.3525 0.650221 46.8944 0.712751 46.3917C0.790797 45.7643 0.879811 45.1403 0.979595 44.5199C1.06003 44.0198 1.53065 43.6796 2.03076 43.76ZM104.579 43.76C105.079 43.6796 105.549 44.0198 105.63 44.5199C105.73 45.1403 105.819 45.7643 105.897 46.3917C105.959 46.8944 105.602 47.3525 105.1 47.4151C104.597 47.4776 104.139 47.1208 104.076 46.6181C104.001 46.0124 103.915 45.4101 103.819 44.8112C103.738 44.3111 104.079 43.8404 104.579 43.76ZM105.363 51.1498C105.87 51.1409 106.287 51.5442 106.296 52.0507C106.302 52.3665 106.305 52.6829 106.305 53C106.305 53.3171 106.302 53.6335 106.296 53.9493C106.287 54.4558 105.87 54.8591 105.363 54.8502C104.857 54.8413 104.453 54.4235 104.462 53.9171C104.468 53.612 104.47 53.3063 104.47 53C104.47 52.6937 104.468 52.388 104.462 52.0829C104.453 51.5765 104.857 51.1587 105.363 51.1498ZM1.24616 51.1498C1.75261 51.1587 2.15597 51.5765 2.14707 52.0829C2.14171 52.388 2.13902 52.6937 2.13902 53C2.13902 53.3063 2.14171 53.612 2.14707 53.9171C2.15597 54.4235 1.75261 54.8413 1.24616 54.8502C0.739699 54.8591 0.32192 54.4558 0.313021 53.9493C0.307473 53.6335 0.304688 53.3171 0.304688 53C0.304688 52.6829 0.307473 52.3665 0.313021 52.0507C0.32192 51.5442 0.739699 51.1409 1.24616 51.1498ZM1.50968 58.5849C2.01234 58.5224 2.47052 58.8792 2.53305 59.3819C2.6084 59.9876 2.69433 60.5899 2.79065 61.1888C2.87108 61.6889 2.53087 62.1596 2.03076 62.24C1.53065 62.3204 1.06003 61.9802 0.979595 61.4801C0.87981 60.8597 0.790797 60.2357 0.712751 59.6083C0.650221 59.1056 1.00702 58.6475 1.50968 58.5849ZM105.1 58.5849C105.602 58.6475 105.959 59.1056 105.897 59.6083C105.819 60.2357 105.73 60.8597 105.63 61.4801C105.549 61.9802 105.079 62.3204 104.579 62.24C104.079 62.1596 103.738 61.6889 103.819 61.1888C103.915 60.5899 104.001 59.9876 104.076 59.3819C104.139 58.8792 104.597 58.5224 105.1 58.5849ZM2.82337 65.9C3.31193 65.7662 3.8164 66.0538 3.95015 66.5424C4.11114 67.1305 4.28236 67.7143 4.4636 68.2938C4.61482 68.7772 4.34551 69.2917 3.86207 69.4429C3.37864 69.5941 2.86415 69.3248 2.71292 68.8414C2.52513 68.241 2.34772 67.6361 2.18091 67.0267C2.04717 66.5382 2.33481 66.0337 2.82337 65.9ZM103.786 65.9C104.275 66.0337 104.562 66.5382 104.428 67.0267C104.262 67.6361 104.084 68.241 103.896 68.8414C103.745 69.3248 103.231 69.5941 102.747 69.4429C102.264 69.2917 101.995 68.7772 102.146 68.2938C102.327 67.7144 102.498 67.1305 102.659 66.5424C102.793 66.0539 103.297 65.7662 103.786 65.9ZM5.17136 72.9517C5.6357 72.7493 6.17621 72.9616 6.37861 73.426C6.62217 73.9847 6.87542 74.5383 7.13815 75.0865C7.35708 75.5432 7.16426 76.091 6.70748 76.3099C6.2507 76.5289 5.70293 76.3361 5.484 75.8793C5.21181 75.3114 4.94943 74.7379 4.69709 74.159C4.49468 73.6946 4.70702 73.1541 5.17136 72.9517ZM101.438 72.9517C101.902 73.1541 102.115 73.6946 101.912 74.159C101.66 74.7379 101.398 75.3114 101.125 75.8793C100.906 76.3361 100.359 76.5289 99.9019 76.3099C99.4451 76.091 99.2523 75.5433 99.4712 75.0865C99.734 74.5383 99.9872 73.9847 100.231 73.426C100.433 72.9616 100.974 72.7493 101.438 72.9517ZM8.50499 79.595C8.93569 79.3284 9.50096 79.4614 9.76757 79.8921C10.0883 80.4102 10.418 80.9222 10.7565 81.4278C11.0383 81.8487 10.9256 82.4184 10.5046 82.7002C10.0837 82.982 9.51406 82.8692 9.23227 82.4483C8.88165 81.9246 8.54011 81.3942 8.20788 80.8575C7.94128 80.4268 8.0743 79.8616 8.50499 79.595ZM98.1044 79.595C98.5351 79.8616 98.6681 80.4268 98.4015 80.8575C98.0693 81.3942 97.7277 81.9246 97.3771 82.4483C97.0953 82.8692 96.5257 82.982 96.1047 82.7002C95.6838 82.4184 95.571 81.8487 95.8528 81.4278C96.1913 80.9222 96.5211 80.4102 96.8418 79.8921C97.1084 79.4614 97.6737 79.3284 98.1044 79.595ZM12.7508 85.696C13.1393 85.371 13.7178 85.4224 14.0428 85.8109C14.4337 86.2781 14.8327 86.7383 15.2397 87.1911C15.5783 87.5678 15.5475 88.1477 15.1707 88.4864C14.794 88.825 14.2141 88.7941 13.8755 88.4173C13.454 87.9484 13.0407 87.4718 12.6359 86.988C12.3108 86.5995 12.3623 86.021 12.7508 85.696ZM93.8586 85.696C94.2471 86.021 94.2985 86.5995 93.9735 86.988C93.5687 87.4718 93.1554 87.9484 92.7339 88.4173C92.3953 88.7941 91.8154 88.825 91.4387 88.4863C91.0619 88.1477 91.031 87.5678 91.3697 87.1911C91.7767 86.7383 92.1757 86.2781 92.5666 85.8109C92.8916 85.4224 93.4701 85.371 93.8586 85.696ZM88.791 91.134C89.1297 91.5107 89.0988 92.0906 88.722 92.4292C88.2531 92.8507 87.7765 93.264 87.2926 93.6688C86.9041 93.9938 86.3257 93.9424 86.0007 93.5539C85.6757 93.1654 85.7271 92.5869 86.1156 92.2619C86.5828 91.871 87.043 91.472 87.4958 91.065C87.8725 90.7263 88.4524 90.7572 88.791 91.134ZM17.8183 91.134C18.157 90.7572 18.7368 90.7263 19.1136 91.065C19.5664 91.472 20.0265 91.871 20.4938 92.2619C20.8823 92.5869 20.9337 93.1654 20.6087 93.5539C20.2837 93.9424 19.7052 93.9938 19.3167 93.6688C18.8329 93.264 18.3563 92.8507 17.8874 92.4292C17.5106 92.0906 17.4797 91.5107 17.8183 91.134ZM23.6045 95.8C23.8863 95.3791 24.456 95.2664 24.8769 95.5482C25.3825 95.8867 25.8945 96.2164 26.4126 96.5371C26.8433 96.8037 26.9763 97.369 26.7097 97.7997C26.4431 98.2304 25.8778 98.3634 25.4471 98.0968C24.9104 97.7646 24.3801 97.423 23.8564 97.0724C23.4355 96.7906 23.3227 96.221 23.6045 95.8ZM83.0049 95.8C83.2867 96.221 83.1739 96.7906 82.753 97.0724C82.2293 97.423 81.6989 97.7646 81.1622 98.0968C80.7315 98.3634 80.1663 98.2304 79.8997 97.7997C79.633 97.369 79.7661 96.8037 80.1968 96.5371C80.7149 96.2164 81.2269 95.8867 81.7325 95.5482C82.1534 95.2664 82.7231 95.3791 83.0049 95.8ZM29.9947 99.5972C30.2137 99.1404 30.7614 98.9476 31.2182 99.1665C31.7664 99.4293 32.32 99.6825 32.8787 99.9261C33.343 100.128 33.5554 100.669 33.353 101.133C33.1506 101.598 32.6101 101.81 32.1457 101.608C31.5668 101.355 30.9933 101.093 30.4254 100.821C29.9686 100.602 29.7758 100.054 29.9947 99.5972ZM76.6146 99.5972C76.8336 100.054 76.6407 100.602 76.184 100.821C75.6161 101.093 75.0425 101.355 74.4636 101.608C73.9993 101.81 73.4588 101.598 73.2564 101.133C73.054 100.669 73.2663 100.128 73.7307 99.9261C74.2894 99.6825 74.843 99.4293 75.3912 99.1665C75.8479 98.9476 76.3957 99.1404 76.6146 99.5972ZM36.8618 102.443C37.013 101.959 37.5275 101.69 38.0109 101.841C38.5903 102.022 39.1742 102.194 39.7623 102.355C40.2508 102.488 40.5385 102.993 40.4047 103.481C40.271 103.97 39.7665 104.258 39.278 104.124C38.6686 103.957 38.0637 103.78 37.4633 103.592C36.9799 103.441 36.7105 102.926 36.8618 102.443ZM69.7476 102.443C69.8988 102.926 69.6295 103.441 69.1461 103.592C68.5457 103.78 67.9408 103.957 67.3314 104.124C66.8429 104.258 66.3384 103.97 66.2046 103.481C66.0709 102.993 66.3585 102.488 66.8471 102.355C67.4352 102.194 68.019 102.022 68.5985 101.841C69.0819 101.69 69.5964 101.959 69.7476 102.443ZM44.0647 104.274C44.1451 103.774 44.6157 103.434 45.1159 103.514C45.7147 103.61 46.3171 103.696 46.9228 103.772C47.4255 103.834 47.7823 104.292 47.7198 104.795C47.6572 105.298 47.199 105.654 46.6964 105.592C46.069 105.514 45.445 105.425 44.8246 105.325C44.3245 105.245 43.9843 104.774 44.0647 104.274ZM62.5447 104.274C62.6251 104.774 62.2849 105.245 61.7848 105.325C61.1644 105.425 60.5404 105.514 59.913 105.592C59.4103 105.654 58.9521 105.298 58.8896 104.795C58.8271 104.292 59.1839 103.834 59.6866 103.772C60.2922 103.696 60.8946 103.61 61.4935 103.514C61.9936 103.434 62.4642 103.774 62.5447 104.274ZM51.4545 105.059C51.4634 104.552 51.8811 104.149 52.3876 104.158C52.6926 104.163 52.9983 104.166 53.3047 104.166C53.611 104.166 53.9167 104.163 54.2218 104.158C54.7282 104.149 55.146 104.552 55.1549 105.059C55.1638 105.565 54.7605 105.983 54.254 105.992C53.9382 105.997 53.6218 106 53.3047 106C52.9876 106 52.6712 105.997 52.3554 105.992C51.8489 105.983 51.4456 105.565 51.4545 105.059Z" fill="#38868F"/>
<path d="M81.4788 69.1113C82.3491 69.1113 82.99 69.3137 83.4015 69.7185C83.8198 70.1166 84.029 70.6664 84.029 71.368C84.029 71.6851 83.9851 71.9887 83.8974 72.2788C83.8097 72.5622 83.6647 72.8185 83.4623 73.0479C83.2599 73.2706 82.99 73.446 82.6527 73.5742C82.3221 73.7023 81.9139 73.7664 81.4282 73.7664H80.8615V76.3369H79.2221V69.1113H81.4788ZM81.4282 70.3662H80.8615V72.5116H81.2764C81.4923 72.5116 81.6846 72.4745 81.8532 72.4003C82.0219 72.326 82.1534 72.208 82.2479 72.0461C82.3423 71.8841 82.3896 71.675 82.3896 71.4186C82.3896 71.0611 82.3086 70.798 82.1467 70.6293C81.9915 70.4539 81.752 70.3662 81.4282 70.3662Z" fill="white"/>
<path d="M76.6513 76.3369L76.2363 74.6165H73.8987L73.4736 76.3369H71.6926L73.9999 69.081H76.1048L78.4222 76.3369H76.6513ZM75.4065 71.6514C75.366 71.5097 75.3256 71.3613 75.2851 71.2061C75.2446 71.051 75.2041 70.8891 75.1637 70.7204C75.1299 70.5517 75.0962 70.3797 75.0625 70.2043C75.0355 70.3797 75.0017 70.5551 74.9613 70.7305C74.9208 70.8992 74.8803 71.0611 74.8398 71.2163C74.8061 71.3714 74.769 71.5165 74.7285 71.6514L74.263 73.3313H75.8822L75.4065 71.6514Z" fill="white"/>
<path d="M64.6006 72.5824L62.4653 69.1113H64.1958L66.24 72.6128V69.1113H67.7883V72.6128L69.8325 69.1113H71.563L69.4277 72.5824L71.7148 76.3369H69.9337L67.7883 72.6735V76.3369H66.24V72.6735L64.0946 76.3369H62.3135L64.6006 72.5824Z" fill="white"/>
<path d="M52.717 69.1113H54.2147V72.6027C54.2147 72.7713 54.2113 72.9602 54.2046 73.1694C54.2046 73.3785 54.2012 73.5843 54.1945 73.7867C54.1877 73.9823 54.181 74.1544 54.1742 74.3028C54.1675 74.4445 54.1573 74.5423 54.1439 74.5962H54.1843L57.1494 69.1113H59.0621V76.3369H57.5643V72.8658C57.5643 72.6836 57.5677 72.4846 57.5745 72.2687C57.5812 72.0461 57.5879 71.8335 57.5947 71.6312C57.6014 71.4288 57.6082 71.2533 57.6149 71.1049C57.6284 70.9498 57.6385 70.8486 57.6453 70.8013H57.6149L54.6397 76.3369H52.717V69.1113Z" fill="white"/>
<path d="M44.1586 76.3369V69.1113H45.7981V71.8841H46.4154C47.0225 71.8841 47.5218 71.9786 47.9131 72.1675C48.3111 72.3564 48.6046 72.6161 48.7935 72.9467C48.9824 73.2773 49.0769 73.6551 49.0769 74.0801C49.0769 74.5524 48.9723 74.9572 48.7631 75.2945C48.554 75.6318 48.2437 75.8916 47.8321 76.0737C47.4273 76.2491 46.918 76.3369 46.304 76.3369H44.1586ZM46.2838 75.082C46.6549 75.082 46.9382 75.0078 47.1339 74.8594C47.3295 74.7109 47.4273 74.4512 47.4273 74.0801C47.4273 73.8238 47.3767 73.6281 47.2755 73.4932C47.1811 73.3583 47.0462 73.2672 46.8707 73.22C46.6953 73.166 46.4896 73.139 46.2534 73.139H45.7981V75.082H46.2838Z" fill="white"/>
<path d="M42.5596 76.3369H40.9202V70.3864H39.4427C39.4158 70.6968 39.382 71.0341 39.3415 71.3984C39.3011 71.7627 39.2572 72.1338 39.21 72.5116C39.1628 72.8826 39.1122 73.2368 39.0582 73.5742C39.011 73.9047 38.9637 74.1982 38.9165 74.4546C38.8356 74.8729 38.7209 75.2304 38.5724 75.5273C38.424 75.8241 38.2216 76.0501 37.9653 76.2053C37.7156 76.3605 37.3918 76.438 36.9938 76.438C36.8588 76.438 36.734 76.4279 36.6193 76.4077C36.5046 76.3874 36.3933 76.3605 36.2854 76.3267V75.0719C36.3663 75.0989 36.4439 75.1225 36.5181 75.1427C36.5991 75.163 36.68 75.1731 36.761 75.1731C36.8757 75.1731 36.9735 75.1292 37.0545 75.0415C37.1354 74.9538 37.2096 74.8054 37.2771 74.5962C37.3446 74.3804 37.412 74.0835 37.4795 73.7057C37.5065 73.5438 37.5402 73.3144 37.5807 73.0176C37.6279 72.714 37.6785 72.3598 37.7325 71.955C37.7865 71.5434 37.8438 71.0982 37.9045 70.6192C37.9653 70.1334 38.0226 69.6308 38.0766 69.1113H42.5596V76.3369Z" fill="white"/>
<path d="M35.8556 72.714C35.8556 73.2739 35.7915 73.7833 35.6633 74.242C35.5352 74.6941 35.3395 75.0854 35.0764 75.4159C34.8133 75.7465 34.4726 75.9995 34.0543 76.1749C33.6428 76.3503 33.1536 76.438 32.5869 76.438C32.027 76.438 31.5412 76.3503 31.1297 76.1749C30.7181 75.9928 30.3774 75.7398 30.1076 75.4159C29.8445 75.0854 29.6454 74.6907 29.5105 74.2319C29.3823 73.7732 29.3182 73.2638 29.3182 72.7038C29.3182 71.955 29.4329 71.3039 29.6623 70.7507C29.8984 70.1975 30.2594 69.7691 30.7451 69.4655C31.2309 69.1552 31.8482 69 32.597 69C33.3527 69 33.97 69.1552 34.449 69.4655C34.928 69.7691 35.2822 70.2009 35.5115 70.7608C35.7409 71.3141 35.8556 71.9651 35.8556 72.714ZM31.0386 72.714C31.0386 73.2199 31.0892 73.6551 31.1904 74.0194C31.2983 74.3837 31.467 74.6637 31.6964 74.8594C31.9258 75.055 32.2226 75.1528 32.5869 75.1528C32.958 75.1528 33.2548 75.055 33.4775 74.8594C33.7068 74.6637 33.8721 74.3837 33.9733 74.0194C34.0813 73.6551 34.1353 73.2199 34.1353 72.714C34.1353 71.9516 34.0138 71.3545 33.7709 70.9228C33.5348 70.491 33.1435 70.2751 32.597 70.2751C32.226 70.2751 31.9258 70.3729 31.6964 70.5686C31.467 70.7642 31.2983 71.0442 31.1904 71.4085C31.0892 71.7728 31.0386 72.208 31.0386 72.714Z" fill="white"/>
<path d="M23.4941 76.3369V69.1113H27.876V70.3763H25.1335V71.8841H25.7509C26.358 71.8841 26.8573 71.9786 27.2486 72.1675C27.6466 72.3564 27.9401 72.6161 28.129 72.9467C28.3179 73.2773 28.4124 73.6551 28.4124 74.0801C28.4124 74.5524 28.3078 74.9572 28.0986 75.2945C27.8895 75.6318 27.5792 75.8916 27.1676 76.0737C26.7628 76.2491 26.2535 76.3369 25.6395 76.3369H23.4941ZM25.6193 75.082C25.9904 75.082 26.2737 75.0078 26.4694 74.8594C26.665 74.7109 26.7628 74.4512 26.7628 74.0801C26.7628 73.8238 26.7122 73.6281 26.611 73.4932C26.5166 73.3583 26.3817 73.2672 26.2062 73.22C26.0308 73.166 25.8251 73.139 25.5889 73.139H25.1335V75.082H25.6193Z" fill="white"/>
<g clip-path="url(#clip0_3024_2643)">
<path fill-rule="evenodd" clip-rule="evenodd" d="M44.3162 24.5974C42.6426 24.5974 41.2854 25.954 41.2854 27.6273V41.5066C41.2854 43.2436 40.3135 44.666 39.2774 45.6398C37.8474 46.9838 36.9567 48.8888 36.9567 51.0035C36.9567 55.0686 40.2511 58.363 44.3162 58.363C48.3804 58.363 51.6748 55.0686 51.6748 51.0035C51.6748 48.8888 50.7851 46.9838 49.3551 45.6398C48.3181 44.666 47.3462 43.2436 47.3462 41.5066V27.6273C47.3462 25.954 45.9899 24.5974 44.3162 24.5974ZM38.688 27.6273C38.688 24.5195 41.2079 22 44.3162 22C47.4236 22 49.9435 24.5195 49.9435 27.6273V41.5066C49.9435 42.2424 50.3686 43.0282 51.1336 43.7479C53.0642 45.5623 54.2722 48.1427 54.2722 51.0035C54.2722 56.5024 49.8151 60.9604 44.3162 60.9604C38.8174 60.9604 34.3594 56.5024 34.3594 51.0035C34.3594 48.1427 35.5674 45.5623 37.4979 43.7479C38.2639 43.0282 38.688 42.2424 38.688 41.5066V27.6273Z" fill="white"/>
<path fill-rule="evenodd" clip-rule="evenodd" d="M44.3168 46.2422C41.6864 46.2422 39.5547 48.3739 39.5547 51.0034C39.5547 53.6338 41.6864 55.7655 44.3168 55.7655C46.9463 55.7655 49.078 53.6338 49.078 51.0034C49.078 48.3739 46.9463 46.2422 44.3168 46.2422Z" fill="white"/>
<path fill-rule="evenodd" clip-rule="evenodd" d="M44.3163 30.6582C45.0331 30.6582 45.6149 31.2391 45.6149 31.9569V47.541C45.6149 48.2579 45.0331 48.8397 44.3163 48.8397C43.5984 48.8397 43.0176 48.2579 43.0176 47.541V31.9569C43.0176 31.2391 43.5984 30.6582 44.3163 30.6582Z" fill="white"/>
<path fill-rule="evenodd" clip-rule="evenodd" d="M53.8397 31.5234C54.5566 31.5234 55.1384 32.1052 55.1384 32.8221V35.3534C55.1384 35.5923 55.332 35.7859 55.571 35.7859H57.7357V32.8221C57.7357 32.1052 58.3175 31.5234 59.0344 31.5234C59.7513 31.5234 60.3331 32.1052 60.3331 32.8221V43.2116C60.3331 43.9294 59.7513 44.5102 59.0344 44.5102C58.3175 44.5102 57.7357 43.9294 57.7357 43.2116V38.3833H55.571C53.8973 38.3833 52.541 37.027 52.541 35.3534V32.8221C52.541 32.1052 53.1228 31.5234 53.8397 31.5234Z" fill="white"/>
<path fill-rule="evenodd" clip-rule="evenodd" d="M62.0645 34.5543C62.0645 32.8807 63.4217 31.5234 65.0953 31.5234H66.8266C68.5002 31.5234 69.8565 32.8807 69.8565 34.5543V41.4803C69.8565 43.1539 68.5002 44.5102 66.8266 44.5102H65.0953C63.4217 44.5102 62.0645 43.1539 62.0645 41.4803V34.5543ZM65.0953 34.1208C64.8564 34.1208 64.6618 34.3154 64.6618 34.5543V41.4803C64.6618 41.7193 64.8564 41.9129 65.0953 41.9129H66.8266C67.0655 41.9129 67.2592 41.7193 67.2592 41.4803V34.5543C67.2592 34.3154 67.0655 34.1208 66.8266 34.1208H65.0953Z" fill="white"/>
<path fill-rule="evenodd" clip-rule="evenodd" d="M70.2906 22.8657C68.617 22.8657 67.2598 24.2224 67.2598 25.896C67.2598 27.5697 68.617 28.926 70.2906 28.926C71.9643 28.926 73.3206 27.5697 73.3206 25.896C73.3206 24.2224 71.9643 22.8657 70.2906 22.8657Z" fill="white"/>
</g>
<defs>
<clipPath id="clip0_3024_2643">
<rect width="40" height="40" fill="white" transform="translate(33.4941 21)"/>
</clipPath>
</defs>
</svg>
