<svg width="107" height="106" viewBox="0 0 107 106" fill="none" xmlns="http://www.w3.org/2000/svg">
<path fill-rule="evenodd" clip-rule="evenodd" d="M52.3554 0.00833385C52.6712 0.00278557 52.9876 0 53.3047 0C53.6218 0 53.9382 0.00278551 54.254 0.00833379C54.7605 0.0172323 55.1638 0.435011 55.1549 0.941469C55.146 1.44793 54.7282 1.85128 54.2218 1.84238C53.9167 1.83702 53.611 1.83433 53.3047 1.83433C52.9983 1.83433 52.6926 1.83702 52.3876 1.84238C51.8811 1.85128 51.4634 1.44793 51.4545 0.941469C51.4456 0.435011 51.8489 0.0172324 52.3554 0.00833385ZM47.7198 1.20499C47.7823 1.70765 47.4255 2.16583 46.9228 2.22836C46.3171 2.30371 45.7147 2.38964 45.1159 2.48596C44.6157 2.5664 44.1451 2.22618 44.0647 1.72608C43.9843 1.22597 44.3245 0.755343 44.8246 0.674908C45.445 0.575123 46.069 0.486109 46.6964 0.408063C47.199 0.345533 47.6572 0.70233 47.7198 1.20499ZM58.8896 1.20499C58.9522 0.70233 59.4103 0.345533 59.913 0.408064C60.5404 0.486109 61.1644 0.575123 61.7848 0.674908C62.2849 0.755343 62.6251 1.22597 62.5447 1.72608C62.4642 2.22618 61.9936 2.5664 61.4935 2.48596C60.8946 2.38964 60.2922 2.30371 59.6866 2.22836C59.1839 2.16583 58.8271 1.70765 58.8896 1.20499ZM40.4047 2.51868C40.5385 3.00724 40.2508 3.51172 39.7623 3.64546C39.1742 3.80645 38.5903 3.97767 38.0109 4.15891C37.5275 4.31014 37.013 4.04082 36.8618 3.55739C36.7106 3.07395 36.9799 2.55946 37.4633 2.40824C38.0637 2.22044 38.6686 2.04303 39.278 1.87623C39.7665 1.74248 40.271 2.03012 40.4047 2.51868ZM66.2047 2.51868C66.3384 2.03012 66.8429 1.74248 67.3314 1.87623C67.9408 2.04303 68.5457 2.22044 69.1461 2.40824C69.6295 2.55946 69.8988 3.07395 69.7476 3.55739C69.5964 4.04083 69.0819 4.31014 68.5985 4.15892C68.019 3.97767 67.4352 3.80645 66.8471 3.64546C66.3585 3.51172 66.0709 3.00724 66.2047 2.51868ZM33.353 4.86668C33.5554 5.33102 33.3431 5.87152 32.8787 6.07392C32.32 6.31748 31.7664 6.57073 31.2182 6.83346C30.7614 7.05239 30.2137 6.85958 29.9947 6.4028C29.7758 5.94602 29.9686 5.39824 30.4254 5.17931C30.9933 4.90712 31.5668 4.64474 32.1457 4.3924C32.6101 4.19 33.1506 4.40234 33.353 4.86668ZM73.2564 4.86668C73.4588 4.40234 73.9993 4.19 74.4636 4.3924C75.0425 4.64475 75.6161 4.90712 76.184 5.17932C76.6407 5.39825 76.8336 5.94602 76.6146 6.4028C76.3957 6.85958 75.8479 7.05239 75.3912 6.83346C74.843 6.57073 74.2894 6.31748 73.7307 6.07392C73.2663 5.87152 73.054 5.33102 73.2564 4.86668ZM26.7097 8.2003C26.9763 8.631 26.8433 9.19627 26.4126 9.46288C25.8945 9.78362 25.3825 10.1133 24.8769 10.4519C24.456 10.7336 23.8863 10.6209 23.6045 10.2C23.3227 9.77904 23.4355 9.20938 23.8564 8.92758C24.3801 8.57696 24.9104 8.23542 25.4471 7.9032C25.8778 7.63659 26.4431 7.76961 26.7097 8.2003ZM79.8997 8.2003C80.1663 7.76961 80.7315 7.63659 81.1622 7.9032C81.6989 8.23542 82.2293 8.57696 82.753 8.92758C83.1739 9.20938 83.2867 9.77904 83.0049 10.2C82.7231 10.6209 82.1534 10.7336 81.7325 10.4519C81.2269 10.1133 80.7149 9.78362 80.1968 9.46288C79.7661 9.19627 79.633 8.631 79.8997 8.2003ZM20.6087 12.4461C20.9337 12.8346 20.8823 13.4131 20.4938 13.7381C20.0265 14.129 19.5664 14.528 19.1136 14.935C18.7368 15.2737 18.157 15.2428 17.8183 14.866C17.4797 14.4893 17.5106 13.9094 17.8873 13.5708C18.3563 13.1493 18.8329 12.736 19.3167 12.3312C19.7052 12.0062 20.2837 12.0576 20.6087 12.4461ZM86.0007 12.4461C86.3257 12.0576 86.9041 12.0062 87.2926 12.3312C87.7765 12.736 88.2531 13.1493 88.722 13.5708C89.0988 13.9094 89.1296 14.4893 88.791 14.866C88.4524 15.2428 87.8725 15.2737 87.4958 14.935C87.043 14.528 86.5828 14.129 86.1156 13.7381C85.7271 13.4131 85.6757 12.8346 86.0007 12.4461ZM91.4387 17.5137C91.8154 17.175 92.3953 17.2059 92.7339 17.5827C93.1554 18.0516 93.5687 18.5282 93.9735 19.012C94.2985 19.4006 94.2471 19.979 93.8586 20.304C93.4701 20.629 92.8916 20.5776 92.5666 20.1891C92.1757 19.7219 91.7767 19.2617 91.3697 18.8089C91.031 18.4322 91.0619 17.8523 91.4387 17.5137ZM15.1707 17.5137C15.5474 17.8523 15.5783 18.4322 15.2397 18.8089C14.8327 19.2617 14.4337 19.7219 14.0428 20.1891C13.7178 20.5776 13.1393 20.629 12.7508 20.304C12.3623 19.979 12.3108 19.4005 12.6359 19.012C13.0407 18.5282 13.454 18.0516 13.8755 17.5827C14.2141 17.2059 14.794 17.175 15.1707 17.5137ZM10.5046 23.2998C10.9256 23.5816 11.0383 24.1513 10.7565 24.5722C10.418 25.0778 10.0883 25.5898 9.76757 26.1079C9.50096 26.5386 8.93569 26.6716 8.50499 26.405C8.0743 26.1384 7.94128 25.5732 8.20788 25.1425C8.54011 24.6058 8.88165 24.0754 9.23227 23.5517C9.51406 23.1308 10.0837 23.018 10.5046 23.2998ZM96.1047 23.2998C96.5257 23.018 97.0953 23.1308 97.3771 23.5517C97.7277 24.0754 98.0693 24.6058 98.4015 25.1425C98.6681 25.5732 98.5351 26.1384 98.1044 26.405C97.6737 26.6716 97.1084 26.5386 96.8418 26.1079C96.5211 25.5898 96.1913 25.0778 95.8528 24.5722C95.571 24.1513 95.6838 23.5816 96.1047 23.2998ZM6.70748 29.6901C7.16427 29.909 7.35708 30.4568 7.13815 30.9135C6.87542 31.4617 6.62217 32.0153 6.37861 32.574C6.17621 33.0384 5.6357 33.2507 5.17136 33.0483C4.70703 32.8459 4.49468 32.3054 4.69709 31.841C4.94943 31.2621 5.21181 30.6886 5.484 30.1207C5.70293 29.6639 6.2507 29.4711 6.70748 29.6901ZM99.9019 29.6901C100.359 29.4711 100.906 29.6639 101.125 30.1207C101.398 30.6886 101.66 31.2621 101.912 31.8411C102.115 32.3054 101.902 32.8459 101.438 33.0483C100.974 33.2507 100.433 33.0384 100.231 32.574C99.9872 32.0153 99.734 31.4617 99.4712 30.9135C99.2523 30.4568 99.4451 29.909 99.9019 29.6901ZM3.86208 36.5571C4.34551 36.7083 4.61483 37.2228 4.4636 37.7062C4.28236 38.2857 4.11114 38.8695 3.95015 39.4576C3.81641 39.9462 3.31193 40.2338 2.82337 40.1C2.33481 39.9663 2.04717 39.4618 2.18092 38.9733C2.34772 38.3639 2.52513 37.759 2.71293 37.1586C2.86415 36.6752 3.37864 36.4059 3.86208 36.5571ZM102.747 36.5571C103.231 36.4059 103.745 36.6752 103.896 37.1586C104.084 37.759 104.262 38.3639 104.428 38.9733C104.562 39.4618 104.275 39.9663 103.786 40.1C103.297 40.2338 102.793 39.9462 102.659 39.4576C102.498 38.8695 102.327 38.2857 102.146 37.7062C101.995 37.2228 102.264 36.7083 102.747 36.5571ZM2.03076 43.76C2.53087 43.8404 2.87108 44.3111 2.79065 44.8112C2.69433 45.4101 2.6084 46.0124 2.53305 46.6181C2.47052 47.1208 2.01234 47.4776 1.50968 47.4151C1.00702 47.3525 0.650221 46.8944 0.712751 46.3917C0.790797 45.7643 0.879811 45.1403 0.979595 44.5199C1.06003 44.0198 1.53065 43.6796 2.03076 43.76ZM104.579 43.76C105.079 43.6796 105.549 44.0198 105.63 44.5199C105.73 45.1403 105.819 45.7643 105.897 46.3917C105.959 46.8944 105.602 47.3525 105.1 47.4151C104.597 47.4776 104.139 47.1208 104.076 46.6181C104.001 46.0124 103.915 45.4101 103.819 44.8112C103.738 44.3111 104.079 43.8404 104.579 43.76ZM105.363 51.1498C105.87 51.1409 106.287 51.5442 106.296 52.0507C106.302 52.3665 106.305 52.6829 106.305 53C106.305 53.3171 106.302 53.6335 106.296 53.9493C106.287 54.4558 105.87 54.8591 105.363 54.8502C104.857 54.8413 104.453 54.4235 104.462 53.9171C104.468 53.612 104.47 53.3063 104.47 53C104.47 52.6937 104.468 52.388 104.462 52.0829C104.453 51.5765 104.857 51.1587 105.363 51.1498ZM1.24616 51.1498C1.75261 51.1587 2.15597 51.5765 2.14707 52.0829C2.14171 52.388 2.13902 52.6937 2.13902 53C2.13902 53.3063 2.14171 53.612 2.14707 53.9171C2.15597 54.4235 1.75261 54.8413 1.24616 54.8502C0.739699 54.8591 0.32192 54.4558 0.313021 53.9493C0.307473 53.6335 0.304688 53.3171 0.304688 53C0.304688 52.6829 0.307473 52.3665 0.313021 52.0507C0.32192 51.5442 0.739699 51.1409 1.24616 51.1498ZM1.50968 58.5849C2.01234 58.5224 2.47052 58.8792 2.53305 59.3819C2.6084 59.9876 2.69433 60.5899 2.79065 61.1888C2.87108 61.6889 2.53087 62.1596 2.03076 62.24C1.53065 62.3204 1.06003 61.9802 0.979595 61.4801C0.87981 60.8597 0.790797 60.2357 0.712751 59.6083C0.650221 59.1056 1.00702 58.6475 1.50968 58.5849ZM105.1 58.5849C105.602 58.6475 105.959 59.1056 105.897 59.6083C105.819 60.2357 105.73 60.8597 105.63 61.4801C105.549 61.9802 105.079 62.3204 104.579 62.24C104.079 62.1596 103.738 61.6889 103.819 61.1888C103.915 60.5899 104.001 59.9876 104.076 59.3819C104.139 58.8792 104.597 58.5224 105.1 58.5849ZM2.82337 65.9C3.31193 65.7662 3.8164 66.0538 3.95015 66.5424C4.11114 67.1305 4.28236 67.7143 4.4636 68.2938C4.61482 68.7772 4.34551 69.2917 3.86207 69.4429C3.37864 69.5941 2.86415 69.3248 2.71292 68.8414C2.52513 68.241 2.34772 67.6361 2.18091 67.0267C2.04717 66.5382 2.33481 66.0337 2.82337 65.9ZM103.786 65.9C104.275 66.0337 104.562 66.5382 104.428 67.0267C104.262 67.6361 104.084 68.241 103.896 68.8414C103.745 69.3248 103.231 69.5941 102.747 69.4429C102.264 69.2917 101.995 68.7772 102.146 68.2938C102.327 67.7144 102.498 67.1305 102.659 66.5424C102.793 66.0539 103.297 65.7662 103.786 65.9ZM5.17136 72.9517C5.6357 72.7493 6.17621 72.9616 6.37861 73.426C6.62217 73.9847 6.87542 74.5383 7.13815 75.0865C7.35708 75.5432 7.16426 76.091 6.70748 76.3099C6.2507 76.5289 5.70293 76.3361 5.484 75.8793C5.21181 75.3114 4.94943 74.7379 4.69709 74.159C4.49468 73.6946 4.70702 73.1541 5.17136 72.9517ZM101.438 72.9517C101.902 73.1541 102.115 73.6946 101.912 74.159C101.66 74.7379 101.398 75.3114 101.125 75.8793C100.906 76.3361 100.359 76.5289 99.9019 76.3099C99.4451 76.091 99.2523 75.5433 99.4712 75.0865C99.734 74.5383 99.9872 73.9847 100.231 73.426C100.433 72.9616 100.974 72.7493 101.438 72.9517ZM8.50499 79.595C8.93569 79.3284 9.50096 79.4614 9.76757 79.8921C10.0883 80.4102 10.418 80.9222 10.7565 81.4278C11.0383 81.8487 10.9256 82.4184 10.5046 82.7002C10.0837 82.982 9.51406 82.8692 9.23227 82.4483C8.88165 81.9246 8.54011 81.3942 8.20788 80.8575C7.94128 80.4268 8.0743 79.8616 8.50499 79.595ZM98.1044 79.595C98.5351 79.8616 98.6681 80.4268 98.4015 80.8575C98.0693 81.3942 97.7277 81.9246 97.3771 82.4483C97.0953 82.8692 96.5257 82.982 96.1047 82.7002C95.6838 82.4184 95.571 81.8487 95.8528 81.4278C96.1913 80.9222 96.5211 80.4102 96.8418 79.8921C97.1084 79.4614 97.6737 79.3284 98.1044 79.595ZM12.7508 85.696C13.1393 85.371 13.7178 85.4224 14.0428 85.8109C14.4337 86.2781 14.8327 86.7383 15.2397 87.1911C15.5783 87.5678 15.5475 88.1477 15.1707 88.4864C14.794 88.825 14.2141 88.7941 13.8755 88.4173C13.454 87.9484 13.0407 87.4718 12.6359 86.988C12.3108 86.5995 12.3623 86.021 12.7508 85.696ZM93.8586 85.696C94.2471 86.021 94.2985 86.5995 93.9735 86.988C93.5687 87.4718 93.1554 87.9484 92.7339 88.4173C92.3953 88.7941 91.8154 88.825 91.4387 88.4863C91.0619 88.1477 91.031 87.5678 91.3697 87.1911C91.7767 86.7383 92.1757 86.2781 92.5666 85.8109C92.8916 85.4224 93.4701 85.371 93.8586 85.696ZM88.791 91.134C89.1297 91.5107 89.0988 92.0906 88.722 92.4292C88.2531 92.8507 87.7765 93.264 87.2926 93.6688C86.9041 93.9938 86.3257 93.9424 86.0007 93.5539C85.6757 93.1654 85.7271 92.5869 86.1156 92.2619C86.5828 91.871 87.043 91.472 87.4958 91.065C87.8725 90.7263 88.4524 90.7572 88.791 91.134ZM17.8183 91.134C18.157 90.7572 18.7368 90.7263 19.1136 91.065C19.5664 91.472 20.0265 91.871 20.4938 92.2619C20.8823 92.5869 20.9337 93.1654 20.6087 93.5539C20.2837 93.9424 19.7052 93.9938 19.3167 93.6688C18.8329 93.264 18.3563 92.8507 17.8874 92.4292C17.5106 92.0906 17.4797 91.5107 17.8183 91.134ZM23.6045 95.8C23.8863 95.3791 24.456 95.2664 24.8769 95.5482C25.3825 95.8867 25.8945 96.2164 26.4126 96.5371C26.8433 96.8037 26.9763 97.369 26.7097 97.7997C26.4431 98.2304 25.8778 98.3634 25.4471 98.0968C24.9104 97.7646 24.3801 97.423 23.8564 97.0724C23.4355 96.7906 23.3227 96.221 23.6045 95.8ZM83.0049 95.8C83.2867 96.221 83.1739 96.7906 82.753 97.0724C82.2293 97.423 81.6989 97.7646 81.1622 98.0968C80.7315 98.3634 80.1663 98.2304 79.8997 97.7997C79.633 97.369 79.7661 96.8037 80.1968 96.5371C80.7149 96.2164 81.2269 95.8867 81.7325 95.5482C82.1534 95.2664 82.7231 95.3791 83.0049 95.8ZM29.9947 99.5972C30.2137 99.1404 30.7614 98.9476 31.2182 99.1665C31.7664 99.4293 32.32 99.6825 32.8787 99.9261C33.343 100.128 33.5554 100.669 33.353 101.133C33.1506 101.598 32.6101 101.81 32.1457 101.608C31.5668 101.355 30.9933 101.093 30.4254 100.821C29.9686 100.602 29.7758 100.054 29.9947 99.5972ZM76.6146 99.5972C76.8336 100.054 76.6407 100.602 76.184 100.821C75.6161 101.093 75.0425 101.355 74.4636 101.608C73.9993 101.81 73.4588 101.598 73.2564 101.133C73.054 100.669 73.2663 100.128 73.7307 99.9261C74.2894 99.6825 74.843 99.4293 75.3912 99.1665C75.8479 98.9476 76.3957 99.1404 76.6146 99.5972ZM36.8618 102.443C37.013 101.959 37.5275 101.69 38.0109 101.841C38.5903 102.022 39.1742 102.194 39.7623 102.355C40.2508 102.488 40.5385 102.993 40.4047 103.481C40.271 103.97 39.7665 104.258 39.278 104.124C38.6686 103.957 38.0637 103.78 37.4633 103.592C36.9799 103.441 36.7105 102.926 36.8618 102.443ZM69.7476 102.443C69.8988 102.926 69.6295 103.441 69.1461 103.592C68.5457 103.78 67.9408 103.957 67.3314 104.124C66.8429 104.258 66.3384 103.97 66.2046 103.481C66.0709 102.993 66.3585 102.488 66.8471 102.355C67.4352 102.194 68.019 102.022 68.5985 101.841C69.0819 101.69 69.5964 101.959 69.7476 102.443ZM44.0647 104.274C44.1451 103.774 44.6157 103.434 45.1159 103.514C45.7147 103.61 46.3171 103.696 46.9228 103.772C47.4255 103.834 47.7823 104.292 47.7198 104.795C47.6572 105.298 47.199 105.654 46.6964 105.592C46.069 105.514 45.445 105.425 44.8246 105.325C44.3245 105.245 43.9843 104.774 44.0647 104.274ZM62.5447 104.274C62.6251 104.774 62.2849 105.245 61.7848 105.325C61.1644 105.425 60.5404 105.514 59.913 105.592C59.4103 105.654 58.9521 105.298 58.8896 104.795C58.8271 104.292 59.1839 103.834 59.6866 103.772C60.2922 103.696 60.8946 103.61 61.4935 103.514C61.9936 103.434 62.4642 103.774 62.5447 104.274ZM51.4545 105.059C51.4634 104.552 51.8811 104.149 52.3876 104.158C52.6926 104.163 52.9983 104.166 53.3047 104.166C53.611 104.166 53.9167 104.163 54.2218 104.158C54.7282 104.149 55.146 104.552 55.1549 105.059C55.1638 105.565 54.7605 105.983 54.254 105.992C53.9382 105.997 53.6218 106 53.3047 106C52.9876 106 52.6712 105.997 52.3554 105.992C51.8489 105.983 51.4456 105.565 51.4545 105.059Z" fill="#38868F"/>
<path d="M89.6016 76.17H85.6816V69.03H89.6016V70.27H87.3016V71.84H89.4416V73.08H87.3016V74.92H89.6016V76.17Z" fill="white"/>
<path d="M77.8301 69.03H79.3101V72.48C79.3101 72.6467 79.3067 72.8333 79.3001 73.04C79.3001 73.2467 79.2967 73.45 79.2901 73.65C79.2834 73.8433 79.2767 74.0133 79.2701 74.16C79.2634 74.3 79.2534 74.3967 79.2401 74.45H79.2801L82.2101 69.03H84.1001V76.17H82.6201V72.74C82.6201 72.56 82.6234 72.3633 82.6301 72.15C82.6367 71.93 82.6434 71.72 82.6501 71.52C82.6567 71.32 82.6634 71.1467 82.6701 71C82.6834 70.8467 82.6934 70.7467 82.7001 70.7H82.6701L79.7301 76.17H77.8301V69.03Z" fill="white"/>
<path d="M76.253 76.17H74.623V73.09H72.243V76.17H70.623V69.03H72.243V71.83H74.623V69.03H76.253V76.17Z" fill="white"/>
<path d="M69.3282 76.17H65.4082V69.03H69.3282V70.27H67.0282V71.84H69.1682V73.08H67.0282V74.92H69.3282V76.17Z" fill="white"/>
<path d="M61.7105 69.03C62.5705 69.03 63.2038 69.23 63.6105 69.63C64.0238 70.0233 64.2305 70.5667 64.2305 71.26C64.2305 71.5733 64.1871 71.8733 64.1005 72.16C64.0138 72.44 63.8705 72.6933 63.6705 72.92C63.4705 73.14 63.2038 73.3133 62.8705 73.44C62.5438 73.5667 62.1405 73.63 61.6605 73.63H61.1005V76.17H59.4805V69.03H61.7105ZM61.6605 70.27H61.1005V72.39H61.5105C61.7238 72.39 61.9138 72.3533 62.0805 72.28C62.2471 72.2067 62.3771 72.09 62.4705 71.93C62.5638 71.77 62.6105 71.5633 62.6105 71.31C62.6105 70.9567 62.5305 70.6967 62.3705 70.53C62.2171 70.3567 61.9805 70.27 61.6605 70.27Z" fill="white"/>
<path d="M56.9401 76.17L56.5301 74.47H54.2201L53.8001 76.17H52.0401L54.3201 69H56.4001L58.6901 76.17H56.9401ZM55.7101 71.54C55.6701 71.4 55.6301 71.2533 55.5901 71.1C55.5501 70.9467 55.5101 70.7867 55.4701 70.62C55.4367 70.4533 55.4034 70.2833 55.3701 70.11C55.3434 70.2833 55.3101 70.4567 55.2701 70.63C55.2301 70.7967 55.1901 70.9567 55.1501 71.11C55.1167 71.2633 55.0801 71.4067 55.0401 71.54L54.5801 73.2H56.1801L55.7101 71.54Z" fill="white"/>
<path d="M48.712 69.03C49.332 69.03 49.8419 69.09 50.242 69.21C50.642 69.3233 50.9386 69.5133 51.132 69.78C51.3253 70.04 51.422 70.3933 51.422 70.84C51.422 71.1067 51.3753 71.35 51.282 71.57C51.1886 71.79 51.062 71.97 50.902 72.11C50.7486 72.25 50.5753 72.34 50.382 72.38V72.43C50.582 72.4767 50.7719 72.56 50.952 72.68C51.1386 72.8 51.2886 72.9733 51.402 73.2C51.5153 73.4267 51.572 73.7267 51.572 74.1C51.572 74.5333 51.4686 74.9067 51.262 75.22C51.062 75.5267 50.7753 75.7633 50.402 75.93C50.0286 76.09 49.582 76.17 49.062 76.17H46.502V69.03H48.712ZM48.8019 71.86C49.1619 71.86 49.4119 71.79 49.5519 71.65C49.6919 71.51 49.762 71.3067 49.762 71.04C49.762 70.7667 49.6786 70.57 49.512 70.45C49.352 70.33 49.0986 70.27 48.752 70.27H48.122V71.86H48.8019ZM48.122 73.06V74.92H48.902C49.2753 74.92 49.5353 74.8333 49.682 74.66C49.8286 74.48 49.902 74.2433 49.902 73.95C49.902 73.77 49.8686 73.6133 49.8019 73.48C49.7419 73.3467 49.6353 73.2433 49.4819 73.17C49.3353 73.0967 49.1286 73.06 48.862 73.06H48.122Z" fill="white"/>
<path d="M45.2071 76.17H41.2871V69.03H45.2071V70.27H42.9071V71.84H45.0471V73.08H42.9071V74.92H45.2071V76.17Z" fill="white"/>
<path d="M40.3159 74.97V78.25H38.7459V76.17H30.5059V69.03H32.1259V74.91H34.0059V69.03H35.6159V74.91H37.4959V69.03H39.1159V74.97H40.3159Z" fill="white"/>
<path d="M22.6543 69.03H24.1343V72.48C24.1343 72.6467 24.131 72.8333 24.1243 73.04C24.1243 73.2467 24.121 73.45 24.1143 73.65C24.1076 73.8433 24.101 74.0133 24.0943 74.16C24.0876 74.3 24.0776 74.3967 24.0643 74.45H24.1043L27.0343 69.03H28.9243V76.17H27.4443V72.74C27.4443 72.56 27.4476 72.3633 27.4543 72.15C27.461 71.93 27.4676 71.72 27.4743 71.52C27.481 71.32 27.4876 71.1467 27.4943 71C27.5076 70.8467 27.5176 70.7467 27.5243 70.7H27.4943L24.5543 76.17H22.6543V69.03Z" fill="white"/>
<path d="M15.6719 76.17V69.03H21.0719V76.17H19.4519V70.29H17.2919V76.17H15.6719Z" fill="white"/>
<g clip-path="url(#clip0_3024_2644)">
<mask id="mask0_3024_2644" style="mask-type:luminance" maskUnits="userSpaceOnUse" x="33" y="21" width="41" height="40">
<path d="M73.3672 21H33.3672V61H73.3672V21Z" fill="white"/>
</mask>
<g mask="url(#mask0_3024_2644)">
<path d="M45.5098 55.9956C45.5098 53.3627 47.3541 52.4247 49.0807 52.4247C49.8647 52.4552 50.6429 52.5823 51.3963 52.8031C52.037 52.9932 52.6981 53.106 53.3658 53.1389C53.9534 53.212 54.5418 53.0098 54.9607 52.5911C55.3789 52.1724 55.581 51.5839 55.5083 50.9964C55.4734 50.0998 55.237 49.2226 54.8174 48.4297C54.7898 48.3637 54.7716 48.294 54.7643 48.2228C54.6639 47.9895 54.5614 47.7558 54.448 47.5048C53.3534 45.0815 51.6996 41.4191 51.9665 32.7127C51.9476 32.3067 51.7956 31.9181 51.5352 31.6062C50.8276 30.9144 50.6465 29.8454 51.0872 28.9594C51.1447 28.7749 51.1643 28.5808 51.1447 28.3885L51.144 28.2438C51.144 26.4025 49.1389 25.9994 48.3665 25.9994C47.048 25.9558 45.733 26.1598 44.4901 26.6007L44.2363 26.8546L44.7199 27.8226C44.805 27.992 44.8189 28.1882 44.7585 28.368C44.6458 28.6863 44.6567 29.0358 44.7905 29.3462C44.9876 29.5191 45.2487 29.6006 45.5098 29.5704C48.1927 29.5704 49.7949 30.6383 49.7949 32.4273C49.7949 33.6666 48.136 34.2556 45.624 35.1474C41.6574 36.5551 36.2247 38.4836 36.2247 43.1401V58.1383C36.2254 59.1042 36.0894 60.0652 35.8203 60.993L39.2894 60.9951C40.5061 57.3052 41.1585 53.4527 41.224 49.5679C41.224 49.1817 41.5316 48.8654 41.9178 48.854C42.3032 48.8427 42.6283 49.1404 42.6516 49.526L43.2865 60.3227C43.309 60.7 43.621 60.9946 43.9992 60.995H51.6545C50.9294 60.3322 50.0763 59.8251 49.1476 59.5049C47.4421 58.7471 45.5098 57.8882 45.5098 55.9956Z" fill="white"/>
<path d="M70.5058 58.1383V43.1401C70.5058 38.2911 65.0396 35.7461 60.9268 34.2535C58.961 33.5333 57.6534 31.6638 57.6505 29.5703C57.6876 28.0851 58.1545 26.6426 58.9952 25.4177C59.7108 24.3204 60.1909 23.086 60.4039 21.7934C60.4316 21.5982 60.3727 21.4005 60.2418 21.2524C60.1043 21.0923 59.9036 21.0001 59.6919 21H46.0098C45.8483 21 45.6912 21.0551 45.5647 21.1562L43.1465 23.09L44.4767 23.9768C44.6519 24.0926 44.7668 24.2801 44.7901 24.4888C44.8134 24.6975 44.7428 24.9059 44.5974 25.0573C45.8236 24.7153 47.0927 24.5515 48.3661 24.571C50.0563 24.571 52.5719 25.5492 52.5719 28.2438L52.5727 28.3746C52.6047 28.7933 52.5334 29.2135 52.3647 29.598C52.201 29.9236 52.265 30.3172 52.5225 30.5747C53.0738 31.1684 53.3843 31.9462 53.3938 32.7564C53.137 41.1326 54.6461 44.4759 55.7494 46.9169C55.8745 47.1947 55.9894 47.4542 56.0999 47.7114C56.5523 48.1153 57.017 48.1395 58.3647 48.1395C60.0847 48.1395 61.9356 49.7039 61.9356 53.1389C61.9799 54.478 61.4679 55.7757 60.5203 56.7231C59.5727 57.6705 58.2752 58.1828 56.9363 58.1383C53.9392 58.1383 51.881 56.2283 50.5196 54.9644C50.0425 54.5219 49.3225 53.853 49.0803 53.853C48.4927 53.78 47.9036 53.9822 47.4854 54.4009C47.0665 54.8196 46.8643 55.408 46.9378 55.9957C46.9378 56.8929 48.0418 57.451 49.7276 58.2001C51.201 58.855 52.8425 59.5871 53.2614 60.9951H62.7312C63.1094 60.9946 63.4221 60.6999 63.4447 60.3224L64.0796 49.5261C64.1014 49.1487 64.4141 48.8538 64.7923 48.8537L64.8134 48.8541C65.1996 48.8653 65.5065 49.1816 65.5065 49.5679C65.5065 54.2569 67.0018 59.5039 67.4599 61L70.9123 60.9951C70.6418 60.067 70.505 59.105 70.5058 58.1383Z" fill="white"/>
<path d="M53.3671 54.5673C52.9205 54.5619 52.4762 54.5124 52.0391 54.4195C53.2849 55.5417 54.8216 56.7099 56.938 56.7099C57.8972 56.7526 58.8311 56.3901 59.5096 55.711C60.1889 55.0318 60.5518 54.0984 60.5089 53.139C60.5089 50.7944 59.431 49.568 58.3663 49.568C57.8238 49.5827 57.2805 49.5596 56.7409 49.499C56.8725 49.9874 56.938 50.4908 56.938 50.9964C56.938 52.7226 55.9998 54.5673 53.3671 54.5673Z" fill="white"/>
</g>
</g>
<defs>
<clipPath id="clip0_3024_2644">
<rect width="40" height="40" fill="white" transform="translate(33.4941 21)"/>
</clipPath>
</defs>
</svg>
