<svg width="107" height="106" viewBox="0 0 107 106" fill="none" xmlns="http://www.w3.org/2000/svg">
<path fill-rule="evenodd" clip-rule="evenodd" d="M52.3554 0.00833385C52.6712 0.00278557 52.9876 0 53.3047 0C53.6218 0 53.9382 0.00278551 54.254 0.00833379C54.7605 0.0172323 55.1638 0.435011 55.1549 0.941469C55.146 1.44793 54.7282 1.85128 54.2218 1.84238C53.9167 1.83702 53.611 1.83433 53.3047 1.83433C52.9983 1.83433 52.6926 1.83702 52.3876 1.84238C51.8811 1.85128 51.4634 1.44793 51.4545 0.941469C51.4456 0.435011 51.8489 0.0172324 52.3554 0.00833385ZM47.7198 1.20499C47.7823 1.70765 47.4255 2.16583 46.9228 2.22836C46.3171 2.30371 45.7147 2.38964 45.1159 2.48596C44.6157 2.5664 44.1451 2.22618 44.0647 1.72608C43.9843 1.22597 44.3245 0.755343 44.8246 0.674908C45.445 0.575123 46.069 0.486109 46.6964 0.408063C47.199 0.345533 47.6572 0.70233 47.7198 1.20499ZM58.8896 1.20499C58.9522 0.70233 59.4103 0.345533 59.913 0.408064C60.5404 0.486109 61.1644 0.575123 61.7848 0.674908C62.2849 0.755343 62.6251 1.22597 62.5447 1.72608C62.4642 2.22618 61.9936 2.5664 61.4935 2.48596C60.8946 2.38964 60.2922 2.30371 59.6866 2.22836C59.1839 2.16583 58.8271 1.70765 58.8896 1.20499ZM40.4047 2.51868C40.5385 3.00724 40.2508 3.51172 39.7623 3.64546C39.1742 3.80645 38.5903 3.97767 38.0109 4.15891C37.5275 4.31014 37.013 4.04082 36.8618 3.55739C36.7106 3.07395 36.9799 2.55946 37.4633 2.40824C38.0637 2.22044 38.6686 2.04303 39.278 1.87623C39.7665 1.74248 40.271 2.03012 40.4047 2.51868ZM66.2047 2.51868C66.3384 2.03012 66.8429 1.74248 67.3314 1.87623C67.9408 2.04303 68.5457 2.22044 69.1461 2.40824C69.6295 2.55946 69.8988 3.07395 69.7476 3.55739C69.5964 4.04083 69.0819 4.31014 68.5985 4.15892C68.019 3.97767 67.4352 3.80645 66.8471 3.64546C66.3585 3.51172 66.0709 3.00724 66.2047 2.51868ZM33.353 4.86668C33.5554 5.33102 33.3431 5.87152 32.8787 6.07392C32.32 6.31748 31.7664 6.57073 31.2182 6.83346C30.7614 7.05239 30.2137 6.85958 29.9947 6.4028C29.7758 5.94602 29.9686 5.39824 30.4254 5.17931C30.9933 4.90712 31.5668 4.64474 32.1457 4.3924C32.6101 4.19 33.1506 4.40234 33.353 4.86668ZM73.2564 4.86668C73.4588 4.40234 73.9993 4.19 74.4636 4.3924C75.0425 4.64475 75.6161 4.90712 76.184 5.17932C76.6407 5.39825 76.8336 5.94602 76.6146 6.4028C76.3957 6.85958 75.8479 7.05239 75.3912 6.83346C74.843 6.57073 74.2894 6.31748 73.7307 6.07392C73.2663 5.87152 73.054 5.33102 73.2564 4.86668ZM26.7097 8.2003C26.9763 8.631 26.8433 9.19627 26.4126 9.46288C25.8945 9.78362 25.3825 10.1133 24.8769 10.4519C24.456 10.7336 23.8863 10.6209 23.6045 10.2C23.3227 9.77904 23.4355 9.20938 23.8564 8.92758C24.3801 8.57696 24.9104 8.23542 25.4471 7.9032C25.8778 7.63659 26.4431 7.76961 26.7097 8.2003ZM79.8997 8.2003C80.1663 7.76961 80.7315 7.63659 81.1622 7.9032C81.6989 8.23542 82.2293 8.57696 82.753 8.92758C83.1739 9.20938 83.2867 9.77904 83.0049 10.2C82.7231 10.6209 82.1534 10.7336 81.7325 10.4519C81.2269 10.1133 80.7149 9.78362 80.1968 9.46288C79.7661 9.19627 79.633 8.631 79.8997 8.2003ZM20.6087 12.4461C20.9337 12.8346 20.8823 13.4131 20.4938 13.7381C20.0265 14.129 19.5664 14.528 19.1136 14.935C18.7368 15.2737 18.157 15.2428 17.8183 14.866C17.4797 14.4893 17.5106 13.9094 17.8873 13.5708C18.3563 13.1493 18.8329 12.736 19.3167 12.3312C19.7052 12.0062 20.2837 12.0576 20.6087 12.4461ZM86.0007 12.4461C86.3257 12.0576 86.9041 12.0062 87.2926 12.3312C87.7765 12.736 88.2531 13.1493 88.722 13.5708C89.0988 13.9094 89.1296 14.4893 88.791 14.866C88.4524 15.2428 87.8725 15.2737 87.4958 14.935C87.043 14.528 86.5828 14.129 86.1156 13.7381C85.7271 13.4131 85.6757 12.8346 86.0007 12.4461ZM91.4387 17.5137C91.8154 17.175 92.3953 17.2059 92.7339 17.5827C93.1554 18.0516 93.5687 18.5282 93.9735 19.012C94.2985 19.4006 94.2471 19.979 93.8586 20.304C93.4701 20.629 92.8916 20.5776 92.5666 20.1891C92.1757 19.7219 91.7767 19.2617 91.3697 18.8089C91.031 18.4322 91.0619 17.8523 91.4387 17.5137ZM15.1707 17.5137C15.5474 17.8523 15.5783 18.4322 15.2397 18.8089C14.8327 19.2617 14.4337 19.7219 14.0428 20.1891C13.7178 20.5776 13.1393 20.629 12.7508 20.304C12.3623 19.979 12.3108 19.4005 12.6359 19.012C13.0407 18.5282 13.454 18.0516 13.8755 17.5827C14.2141 17.2059 14.794 17.175 15.1707 17.5137ZM10.5046 23.2998C10.9256 23.5816 11.0383 24.1513 10.7565 24.5722C10.418 25.0778 10.0883 25.5898 9.76757 26.1079C9.50096 26.5386 8.93569 26.6716 8.50499 26.405C8.0743 26.1384 7.94128 25.5732 8.20788 25.1425C8.54011 24.6058 8.88165 24.0754 9.23227 23.5517C9.51406 23.1308 10.0837 23.018 10.5046 23.2998ZM96.1047 23.2998C96.5257 23.018 97.0953 23.1308 97.3771 23.5517C97.7277 24.0754 98.0693 24.6058 98.4015 25.1425C98.6681 25.5732 98.5351 26.1384 98.1044 26.405C97.6737 26.6716 97.1084 26.5386 96.8418 26.1079C96.5211 25.5898 96.1913 25.0778 95.8528 24.5722C95.571 24.1513 95.6838 23.5816 96.1047 23.2998ZM6.70748 29.6901C7.16427 29.909 7.35708 30.4568 7.13815 30.9135C6.87542 31.4617 6.62217 32.0153 6.37861 32.574C6.17621 33.0384 5.6357 33.2507 5.17136 33.0483C4.70703 32.8459 4.49468 32.3054 4.69709 31.841C4.94943 31.2621 5.21181 30.6886 5.484 30.1207C5.70293 29.6639 6.2507 29.4711 6.70748 29.6901ZM99.9019 29.6901C100.359 29.4711 100.906 29.6639 101.125 30.1207C101.398 30.6886 101.66 31.2621 101.912 31.8411C102.115 32.3054 101.902 32.8459 101.438 33.0483C100.974 33.2507 100.433 33.0384 100.231 32.574C99.9872 32.0153 99.734 31.4617 99.4712 30.9135C99.2523 30.4568 99.4451 29.909 99.9019 29.6901ZM3.86208 36.5571C4.34551 36.7083 4.61483 37.2228 4.4636 37.7062C4.28236 38.2857 4.11114 38.8695 3.95015 39.4576C3.81641 39.9462 3.31193 40.2338 2.82337 40.1C2.33481 39.9663 2.04717 39.4618 2.18092 38.9733C2.34772 38.3639 2.52513 37.759 2.71293 37.1586C2.86415 36.6752 3.37864 36.4059 3.86208 36.5571ZM102.747 36.5571C103.231 36.4059 103.745 36.6752 103.896 37.1586C104.084 37.759 104.262 38.3639 104.428 38.9733C104.562 39.4618 104.275 39.9663 103.786 40.1C103.297 40.2338 102.793 39.9462 102.659 39.4576C102.498 38.8695 102.327 38.2857 102.146 37.7062C101.995 37.2228 102.264 36.7083 102.747 36.5571ZM2.03076 43.76C2.53087 43.8404 2.87108 44.3111 2.79065 44.8112C2.69433 45.4101 2.6084 46.0124 2.53305 46.6181C2.47052 47.1208 2.01234 47.4776 1.50968 47.4151C1.00702 47.3525 0.650221 46.8944 0.712751 46.3917C0.790797 45.7643 0.879811 45.1403 0.979595 44.5199C1.06003 44.0198 1.53065 43.6796 2.03076 43.76ZM104.579 43.76C105.079 43.6796 105.549 44.0198 105.63 44.5199C105.73 45.1403 105.819 45.7643 105.897 46.3917C105.959 46.8944 105.602 47.3525 105.1 47.4151C104.597 47.4776 104.139 47.1208 104.076 46.6181C104.001 46.0124 103.915 45.4101 103.819 44.8112C103.738 44.3111 104.079 43.8404 104.579 43.76ZM105.363 51.1498C105.87 51.1409 106.287 51.5442 106.296 52.0507C106.302 52.3665 106.305 52.6829 106.305 53C106.305 53.3171 106.302 53.6335 106.296 53.9493C106.287 54.4558 105.87 54.8591 105.363 54.8502C104.857 54.8413 104.453 54.4235 104.462 53.9171C104.468 53.612 104.47 53.3063 104.47 53C104.47 52.6937 104.468 52.388 104.462 52.0829C104.453 51.5765 104.857 51.1587 105.363 51.1498ZM1.24616 51.1498C1.75261 51.1587 2.15597 51.5765 2.14707 52.0829C2.14171 52.388 2.13902 52.6937 2.13902 53C2.13902 53.3063 2.14171 53.612 2.14707 53.9171C2.15597 54.4235 1.75261 54.8413 1.24616 54.8502C0.739699 54.8591 0.32192 54.4558 0.313021 53.9493C0.307473 53.6335 0.304688 53.3171 0.304688 53C0.304688 52.6829 0.307473 52.3665 0.313021 52.0507C0.32192 51.5442 0.739699 51.1409 1.24616 51.1498ZM1.50968 58.5849C2.01234 58.5224 2.47052 58.8792 2.53305 59.3819C2.6084 59.9876 2.69433 60.5899 2.79065 61.1888C2.87108 61.6889 2.53087 62.1596 2.03076 62.24C1.53065 62.3204 1.06003 61.9802 0.979595 61.4801C0.87981 60.8597 0.790797 60.2357 0.712751 59.6083C0.650221 59.1056 1.00702 58.6475 1.50968 58.5849ZM105.1 58.5849C105.602 58.6475 105.959 59.1056 105.897 59.6083C105.819 60.2357 105.73 60.8597 105.63 61.4801C105.549 61.9802 105.079 62.3204 104.579 62.24C104.079 62.1596 103.738 61.6889 103.819 61.1888C103.915 60.5899 104.001 59.9876 104.076 59.3819C104.139 58.8792 104.597 58.5224 105.1 58.5849ZM2.82337 65.9C3.31193 65.7662 3.8164 66.0538 3.95015 66.5424C4.11114 67.1305 4.28236 67.7143 4.4636 68.2938C4.61482 68.7772 4.34551 69.2917 3.86207 69.4429C3.37864 69.5941 2.86415 69.3248 2.71292 68.8414C2.52513 68.241 2.34772 67.6361 2.18091 67.0267C2.04717 66.5382 2.33481 66.0337 2.82337 65.9ZM103.786 65.9C104.275 66.0337 104.562 66.5382 104.428 67.0267C104.262 67.6361 104.084 68.241 103.896 68.8414C103.745 69.3248 103.231 69.5941 102.747 69.4429C102.264 69.2917 101.995 68.7772 102.146 68.2938C102.327 67.7144 102.498 67.1305 102.659 66.5424C102.793 66.0539 103.297 65.7662 103.786 65.9ZM5.17136 72.9517C5.6357 72.7493 6.17621 72.9616 6.37861 73.426C6.62217 73.9847 6.87542 74.5383 7.13815 75.0865C7.35708 75.5432 7.16426 76.091 6.70748 76.3099C6.2507 76.5289 5.70293 76.3361 5.484 75.8793C5.21181 75.3114 4.94943 74.7379 4.69709 74.159C4.49468 73.6946 4.70702 73.1541 5.17136 72.9517ZM101.438 72.9517C101.902 73.1541 102.115 73.6946 101.912 74.159C101.66 74.7379 101.398 75.3114 101.125 75.8793C100.906 76.3361 100.359 76.5289 99.9019 76.3099C99.4451 76.091 99.2523 75.5433 99.4712 75.0865C99.734 74.5383 99.9872 73.9847 100.231 73.426C100.433 72.9616 100.974 72.7493 101.438 72.9517ZM8.50499 79.595C8.93569 79.3284 9.50096 79.4614 9.76757 79.8921C10.0883 80.4102 10.418 80.9222 10.7565 81.4278C11.0383 81.8487 10.9256 82.4184 10.5046 82.7002C10.0837 82.982 9.51406 82.8692 9.23227 82.4483C8.88165 81.9246 8.54011 81.3942 8.20788 80.8575C7.94128 80.4268 8.0743 79.8616 8.50499 79.595ZM98.1044 79.595C98.5351 79.8616 98.6681 80.4268 98.4015 80.8575C98.0693 81.3942 97.7277 81.9246 97.3771 82.4483C97.0953 82.8692 96.5257 82.982 96.1047 82.7002C95.6838 82.4184 95.571 81.8487 95.8528 81.4278C96.1913 80.9222 96.5211 80.4102 96.8418 79.8921C97.1084 79.4614 97.6737 79.3284 98.1044 79.595ZM12.7508 85.696C13.1393 85.371 13.7178 85.4224 14.0428 85.8109C14.4337 86.2781 14.8327 86.7383 15.2397 87.1911C15.5783 87.5678 15.5475 88.1477 15.1707 88.4864C14.794 88.825 14.2141 88.7941 13.8755 88.4173C13.454 87.9484 13.0407 87.4718 12.6359 86.988C12.3108 86.5995 12.3623 86.021 12.7508 85.696ZM93.8586 85.696C94.2471 86.021 94.2985 86.5995 93.9735 86.988C93.5687 87.4718 93.1554 87.9484 92.7339 88.4173C92.3953 88.7941 91.8154 88.825 91.4387 88.4863C91.0619 88.1477 91.031 87.5678 91.3697 87.1911C91.7767 86.7383 92.1757 86.2781 92.5666 85.8109C92.8916 85.4224 93.4701 85.371 93.8586 85.696ZM88.791 91.134C89.1297 91.5107 89.0988 92.0906 88.722 92.4292C88.2531 92.8507 87.7765 93.264 87.2926 93.6688C86.9041 93.9938 86.3257 93.9424 86.0007 93.5539C85.6757 93.1654 85.7271 92.5869 86.1156 92.2619C86.5828 91.871 87.043 91.472 87.4958 91.065C87.8725 90.7263 88.4524 90.7572 88.791 91.134ZM17.8183 91.134C18.157 90.7572 18.7368 90.7263 19.1136 91.065C19.5664 91.472 20.0265 91.871 20.4938 92.2619C20.8823 92.5869 20.9337 93.1654 20.6087 93.5539C20.2837 93.9424 19.7052 93.9938 19.3167 93.6688C18.8329 93.264 18.3563 92.8507 17.8874 92.4292C17.5106 92.0906 17.4797 91.5107 17.8183 91.134ZM23.6045 95.8C23.8863 95.3791 24.456 95.2664 24.8769 95.5482C25.3825 95.8867 25.8945 96.2164 26.4126 96.5371C26.8433 96.8037 26.9763 97.369 26.7097 97.7997C26.4431 98.2304 25.8778 98.3634 25.4471 98.0968C24.9104 97.7646 24.3801 97.423 23.8564 97.0724C23.4355 96.7906 23.3227 96.221 23.6045 95.8ZM83.0049 95.8C83.2867 96.221 83.1739 96.7906 82.753 97.0724C82.2293 97.423 81.6989 97.7646 81.1622 98.0968C80.7315 98.3634 80.1663 98.2304 79.8997 97.7997C79.633 97.369 79.7661 96.8037 80.1968 96.5371C80.7149 96.2164 81.2269 95.8867 81.7325 95.5482C82.1534 95.2664 82.7231 95.3791 83.0049 95.8ZM29.9947 99.5972C30.2137 99.1404 30.7614 98.9476 31.2182 99.1665C31.7664 99.4293 32.32 99.6825 32.8787 99.9261C33.343 100.128 33.5554 100.669 33.353 101.133C33.1506 101.598 32.6101 101.81 32.1457 101.608C31.5668 101.355 30.9933 101.093 30.4254 100.821C29.9686 100.602 29.7758 100.054 29.9947 99.5972ZM76.6146 99.5972C76.8336 100.054 76.6407 100.602 76.184 100.821C75.6161 101.093 75.0425 101.355 74.4636 101.608C73.9993 101.81 73.4588 101.598 73.2564 101.133C73.054 100.669 73.2663 100.128 73.7307 99.9261C74.2894 99.6825 74.843 99.4293 75.3912 99.1665C75.8479 98.9476 76.3957 99.1404 76.6146 99.5972ZM36.8618 102.443C37.013 101.959 37.5275 101.69 38.0109 101.841C38.5903 102.022 39.1742 102.194 39.7623 102.355C40.2508 102.488 40.5385 102.993 40.4047 103.481C40.271 103.97 39.7665 104.258 39.278 104.124C38.6686 103.957 38.0637 103.78 37.4633 103.592C36.9799 103.441 36.7105 102.926 36.8618 102.443ZM69.7476 102.443C69.8988 102.926 69.6295 103.441 69.1461 103.592C68.5457 103.78 67.9408 103.957 67.3314 104.124C66.8429 104.258 66.3384 103.97 66.2046 103.481C66.0709 102.993 66.3585 102.488 66.8471 102.355C67.4352 102.194 68.019 102.022 68.5985 101.841C69.0819 101.69 69.5964 101.959 69.7476 102.443ZM44.0647 104.274C44.1451 103.774 44.6157 103.434 45.1159 103.514C45.7147 103.61 46.3171 103.696 46.9228 103.772C47.4255 103.834 47.7823 104.292 47.7198 104.795C47.6572 105.298 47.199 105.654 46.6964 105.592C46.069 105.514 45.445 105.425 44.8246 105.325C44.3245 105.245 43.9843 104.774 44.0647 104.274ZM62.5447 104.274C62.6251 104.774 62.2849 105.245 61.7848 105.325C61.1644 105.425 60.5404 105.514 59.913 105.592C59.4103 105.654 58.9521 105.298 58.8896 104.795C58.8271 104.292 59.1839 103.834 59.6866 103.772C60.2922 103.696 60.8946 103.61 61.4935 103.514C61.9936 103.434 62.4642 103.774 62.5447 104.274ZM51.4545 105.059C51.4634 104.552 51.8811 104.149 52.3876 104.158C52.6926 104.163 52.9983 104.166 53.3047 104.166C53.611 104.166 53.9167 104.163 54.2218 104.158C54.7282 104.149 55.146 104.552 55.1549 105.059C55.1638 105.565 54.7605 105.983 54.254 105.992C53.9382 105.997 53.6218 106 53.3047 106C52.9876 106 52.6712 105.997 52.3554 105.992C51.8489 105.983 51.4456 105.565 51.4545 105.059Z" fill="#38868F"/>
<path d="M68.1289 84.25V77.11H73.5289V84.25H71.9089V78.37H69.7489V84.25H68.1289Z" fill="white"/>
<path d="M61.1465 84.25V77.11H66.5465V84.25H64.9265V78.37H62.7665V84.25H61.1465Z" fill="white"/>
<path d="M53.2949 77.11H54.7749V80.56C54.7749 80.7267 54.7716 80.9133 54.7649 81.12C54.7649 81.3267 54.7616 81.53 54.7549 81.73C54.7483 81.9233 54.7416 82.0933 54.7349 82.24C54.7283 82.38 54.7183 82.4767 54.7049 82.53H54.7449L57.6749 77.11H59.5649V84.25H58.0849V80.82C58.0849 80.64 58.0883 80.4433 58.0949 80.23C58.1016 80.01 58.1083 79.8 58.1149 79.6C58.1216 79.4 58.1283 79.2267 58.1349 79.08C58.1483 78.9267 58.1583 78.8267 58.1649 78.78H58.1349L55.1949 84.25H53.2949V77.11Z" fill="white"/>
<path d="M49.5972 77.11C50.4572 77.11 51.0905 77.31 51.4972 77.71C51.9105 78.1033 52.1172 78.6467 52.1172 79.34C52.1172 79.6533 52.0739 79.9533 51.9872 80.24C51.9005 80.52 51.7572 80.7733 51.5572 81C51.3572 81.22 51.0905 81.3933 50.7572 81.52C50.4305 81.6467 50.0272 81.71 49.5472 81.71H48.9872V84.25H47.3672V77.11H49.5972ZM49.5472 78.35H48.9872V80.47H49.3972C49.6105 80.47 49.8005 80.4333 49.9672 80.36C50.1339 80.2867 50.2639 80.17 50.3572 80.01C50.4505 79.85 50.4972 79.6433 50.4972 79.39C50.4972 79.0367 50.4172 78.7767 50.2572 78.61C50.1039 78.4367 49.8672 78.35 49.5472 78.35Z" fill="white"/>
<path d="M46.3659 77.11V78.36H43.6259V84.25H42.0059V77.11H46.3659Z" fill="white"/>
<path d="M31.7129 77.11H33.1929V80.56C33.1929 80.7267 33.1896 80.9133 33.1829 81.12C33.1829 81.3267 33.1796 81.53 33.1729 81.73C33.1662 81.9233 33.1596 82.0933 33.1529 82.24C33.1462 82.38 33.1362 82.4767 33.1229 82.53H33.1629L36.0929 77.11H37.9829V84.25H36.5029V80.82C36.5029 80.64 36.5062 80.4433 36.5129 80.23C36.5196 80.01 36.5262 79.8 36.5329 79.6C36.5396 79.4 36.5462 79.2267 36.5529 79.08C36.5662 78.9267 36.5762 78.8267 36.5829 78.78H36.5529L33.6129 84.25H31.7129V77.11Z" fill="white"/>
<path d="M76.7897 73.25L76.3797 71.55H74.0697L73.6497 73.25H71.8897L74.1697 66.08H76.2497L78.5397 73.25H76.7897ZM75.5597 68.62C75.5197 68.48 75.4797 68.3333 75.4397 68.18C75.3997 68.0267 75.3597 67.8667 75.3197 67.7C75.2863 67.5333 75.253 67.3633 75.2197 67.19C75.193 67.3633 75.1597 67.5367 75.1197 67.71C75.0797 67.8767 75.0397 68.0367 74.9997 68.19C74.9663 68.3433 74.9297 68.4867 74.8897 68.62L74.4297 70.28H76.0297L75.5597 68.62Z" fill="white"/>
<path d="M70.8076 66.11V71.99H71.7076V75.33H70.1476V73.25H66.0876V75.33H64.5176V71.99H65.0576C65.2509 71.6167 65.4276 71.2233 65.5876 70.81C65.7542 70.3967 65.9042 69.9533 66.0376 69.48C66.1709 69.0067 66.2842 68.4933 66.3776 67.94C66.4776 67.38 66.5576 66.77 66.6176 66.11H70.8076ZM67.9076 67.37C67.8676 67.7167 67.8109 68.0867 67.7376 68.48C67.6709 68.8667 67.5876 69.2633 67.4876 69.67C67.3942 70.0767 67.2842 70.4767 67.1576 70.87C67.0376 71.2633 66.9042 71.6367 66.7576 71.99H69.1876V67.37H67.9076Z" fill="white"/>
<path d="M62.9277 71.17C62.7411 71.63 62.5377 72.0233 62.3177 72.35C62.0977 72.6767 61.8211 72.9267 61.4877 73.1C61.1544 73.2667 60.7144 73.35 60.1677 73.35C60.0077 73.35 59.8244 73.3367 59.6177 73.31C59.4111 73.2833 59.2211 73.2467 59.0477 73.2V71.86C59.2077 71.9267 59.3811 71.9733 59.5677 72C59.7544 72.0267 59.9277 72.04 60.0877 72.04C60.2811 72.04 60.4444 72.0067 60.5777 71.94C60.7111 71.8733 60.8211 71.7867 60.9077 71.68C60.9944 71.5667 61.0644 71.44 61.1177 71.3L58.7377 66.11H60.4677L61.5577 68.82C61.6111 68.9467 61.6577 69.0733 61.6977 69.2C61.7444 69.3267 61.7844 69.4533 61.8177 69.58C61.8577 69.7 61.8911 69.8233 61.9177 69.95H61.9677C62.0011 69.83 62.0344 69.7067 62.0677 69.58C62.1077 69.4467 62.1477 69.3167 62.1877 69.19C62.2344 69.0567 62.2811 68.9267 62.3277 68.8L63.3077 66.11H65.0077L62.9277 71.17Z" fill="white"/>
<path d="M56.6997 73.25H55.0797V67.37H53.3497V66.11H58.4297V67.37H56.6997V73.25Z" fill="white"/>
<path d="M50.8045 67.27C50.5645 67.27 50.3479 67.3267 50.1545 67.44C49.9679 67.5533 49.8079 67.7167 49.6745 67.93C49.5412 68.1367 49.4412 68.39 49.3745 68.69C49.3079 68.99 49.2745 69.3267 49.2745 69.7C49.2745 70.2067 49.3312 70.64 49.4445 71C49.5579 71.3533 49.7312 71.6233 49.9645 71.81C50.1979 71.9967 50.4945 72.09 50.8545 72.09C51.1412 72.09 51.4212 72.0567 51.6945 71.99C51.9745 71.9233 52.2645 71.83 52.5645 71.71V72.98C52.2712 73.1067 51.9745 73.2 51.6745 73.26C51.3745 73.32 51.0479 73.35 50.6945 73.35C49.9812 73.35 49.3979 73.2 48.9445 72.9C48.4912 72.5933 48.1545 72.1667 47.9345 71.62C47.7212 71.0667 47.6145 70.4233 47.6145 69.69C47.6145 69.15 47.6845 68.6567 47.8245 68.21C47.9645 67.7567 48.1712 67.3667 48.4445 67.04C48.7179 66.7133 49.0512 66.46 49.4445 66.28C49.8445 66.1 50.3012 66.01 50.8145 66.01C51.1479 66.01 51.4979 66.0567 51.8645 66.15C52.2379 66.2367 52.5612 66.3567 52.8345 66.51L52.3245 67.74C52.0779 67.6133 51.8279 67.5033 51.5745 67.41C51.3279 67.3167 51.0712 67.27 50.8045 67.27Z" fill="white"/>
<path d="M46.5843 69.67C46.5843 70.2233 46.521 70.7267 46.3943 71.18C46.2676 71.6267 46.0743 72.0133 45.8143 72.34C45.5543 72.6667 45.2176 72.9167 44.8043 73.09C44.3976 73.2633 43.9143 73.35 43.3543 73.35C42.801 73.35 42.321 73.2633 41.9143 73.09C41.5076 72.91 41.171 72.66 40.9043 72.34C40.6443 72.0133 40.4476 71.6233 40.3143 71.17C40.1876 70.7167 40.1243 70.2133 40.1243 69.66C40.1243 68.92 40.2376 68.2767 40.4643 67.73C40.6976 67.1833 41.0543 66.76 41.5343 66.46C42.0143 66.1533 42.6243 66 43.3643 66C44.111 66 44.721 66.1533 45.1943 66.46C45.6676 66.76 46.0176 67.1867 46.2443 67.74C46.471 68.2867 46.5843 68.93 46.5843 69.67ZM41.8243 69.67C41.8243 70.17 41.8743 70.6 41.9743 70.96C42.081 71.32 42.2476 71.5967 42.4743 71.79C42.701 71.9833 42.9943 72.08 43.3543 72.08C43.721 72.08 44.0143 71.9833 44.2343 71.79C44.461 71.5967 44.6243 71.32 44.7243 70.96C44.831 70.6 44.8843 70.17 44.8843 69.67C44.8843 68.9167 44.7643 68.3267 44.5243 67.9C44.291 67.4733 43.9043 67.26 43.3643 67.26C42.9976 67.26 42.701 67.3567 42.4743 67.55C42.2476 67.7433 42.081 68.02 41.9743 68.38C41.8743 68.74 41.8243 69.17 41.8243 69.67Z" fill="white"/>
<path d="M36.7066 66.11C37.5666 66.11 38.1999 66.31 38.6066 66.71C39.0199 67.1033 39.2266 67.6467 39.2266 68.34C39.2266 68.6533 39.1832 68.9533 39.0966 69.24C39.0099 69.52 38.8666 69.7733 38.6666 70C38.4666 70.22 38.1999 70.3933 37.8666 70.52C37.5399 70.6467 37.1366 70.71 36.6566 70.71H36.0966V73.25H34.4766V66.11H36.7066ZM36.6566 67.35H36.0966V69.47H36.5066C36.7199 69.47 36.9099 69.4333 37.0766 69.36C37.2432 69.2867 37.3732 69.17 37.4666 69.01C37.5599 68.85 37.6066 68.6433 37.6066 68.39C37.6066 68.0367 37.5266 67.7767 37.3666 67.61C37.2132 67.4367 36.9766 67.35 36.6566 67.35Z" fill="white"/>
<path d="M27.4941 73.25V66.11H32.8941V73.25H31.2741V67.37H29.1141V73.25H27.4941Z" fill="white"/>
<g clip-path="url(#clip0_3024_2645)">
<mask id="mask0_3024_2645" style="mask-type:luminance" maskUnits="userSpaceOnUse" x="33" y="18" width="40" height="40">
<path d="M33.494 57.135L72.6289 57.135V18.0001L33.494 18.0001L33.494 57.135Z" fill="white"/>
</mask>
<g mask="url(#mask0_3024_2645)">
<path d="M36.1623 31.8243L38.733 32.8879C38.2495 34.3611 37.9894 35.9352 37.9894 37.5676C37.9894 39.1999 38.2495 40.7731 38.733 42.2464L36.1623 43.3108L35.6387 42.0455L33.4941 42.9343L35.43 47.6087L37.5746 46.7199L37.0511 45.4554L39.6244 44.3901C41.0724 47.2322 43.397 49.5568 46.2391 51.0056L45.1737 53.5781L43.9093 53.0546L43.0205 55.1992L47.6949 57.135L48.5837 54.9904L47.3183 54.4669L48.3819 51.8962C49.8552 52.3797 51.4293 52.6397 53.0616 52.6397C54.694 52.6397 56.2672 52.3797 57.7404 51.8962L58.8049 54.4669L57.5395 54.9904L58.4283 57.135L63.1028 55.1992L62.214 53.0546L60.9495 53.5781L59.8841 51.0048C62.7262 49.5568 65.0508 47.2322 66.4988 44.3901L69.0722 45.4554L68.5486 46.7199L70.6932 47.6087L72.6291 42.9343L70.4845 42.0455L69.961 43.3108L67.3902 42.2472C67.8738 40.774 68.1338 39.1999 68.1338 37.5676C68.1338 35.9352 67.8738 34.362 67.3902 32.8888L69.961 31.8243L70.4845 33.0897L72.6291 32.2009L70.6932 27.5264L68.5486 28.4152L69.0722 29.6797L66.4988 30.745C65.0508 27.903 62.7262 25.5784 59.8841 24.1299L60.9495 21.5568L62.214 22.0806L63.1028 19.9362L58.4283 18L57.5395 20.1443L58.8049 20.6686L57.7413 23.2386C56.2681 22.7558 54.694 22.495 53.0616 22.495C51.4293 22.495 49.856 22.7557 48.3828 23.2385L47.3183 20.6686L48.5837 20.1443L47.6949 18L43.0205 19.9362L43.9093 22.0806L45.1737 21.5568L46.2391 24.1299C43.397 25.5784 41.0724 27.903 39.6235 30.745L37.0511 29.6797L37.5746 28.4152L35.43 27.5264L33.4941 32.2009L35.6387 33.0897L36.1623 31.8243ZM49.0003 31.1833V33.5045H46.6791V31.1833H49.0003ZM47.8393 36.9892C49.7586 36.9892 51.3205 38.5511 51.3205 40.4705C51.3205 42.3899 49.7586 43.9518 47.8393 43.9518C45.9199 43.9518 44.358 42.3899 44.358 40.4705C44.358 38.5511 45.9199 36.9892 47.8393 36.9892ZM58.284 38.1459C56.3646 38.1459 54.8027 36.584 54.8027 34.6646C54.8027 32.7453 56.3646 31.1833 58.284 31.1833C60.2033 31.1833 61.7652 32.7453 61.7652 34.6646C61.7652 36.584 60.2033 38.1459 58.284 38.1459ZM59.4441 41.6306V43.9518H57.123V41.6306H59.4441Z" fill="white"/>
</g>
</g>
<defs>
<clipPath id="clip0_3024_2645">
<rect width="40" height="40" fill="white" transform="translate(33.3047 18)"/>
</clipPath>
</defs>
</svg>
