<svg width="107" height="106" viewBox="0 0 107 106" fill="none" xmlns="http://www.w3.org/2000/svg">
<path fill-rule="evenodd" clip-rule="evenodd" d="M52.3554 0.00833385C52.6712 0.00278557 52.9876 0 53.3047 0C53.6218 0 53.9382 0.00278551 54.254 0.00833379C54.7605 0.0172323 55.1638 0.435011 55.1549 0.941469C55.146 1.44793 54.7282 1.85128 54.2218 1.84238C53.9167 1.83702 53.611 1.83433 53.3047 1.83433C52.9983 1.83433 52.6926 1.83702 52.3876 1.84238C51.8811 1.85128 51.4634 1.44793 51.4545 0.941469C51.4456 0.435011 51.8489 0.0172324 52.3554 0.00833385ZM47.7198 1.20499C47.7823 1.70765 47.4255 2.16583 46.9228 2.22836C46.3171 2.30371 45.7147 2.38964 45.1159 2.48596C44.6157 2.5664 44.1451 2.22618 44.0647 1.72608C43.9843 1.22597 44.3245 0.755343 44.8246 0.674908C45.445 0.575123 46.069 0.486109 46.6964 0.408063C47.199 0.345533 47.6572 0.70233 47.7198 1.20499ZM58.8896 1.20499C58.9522 0.70233 59.4103 0.345533 59.913 0.408064C60.5404 0.486109 61.1644 0.575123 61.7848 0.674908C62.2849 0.755343 62.6251 1.22597 62.5447 1.72608C62.4642 2.22618 61.9936 2.5664 61.4935 2.48596C60.8946 2.38964 60.2922 2.30371 59.6866 2.22836C59.1839 2.16583 58.8271 1.70765 58.8896 1.20499ZM40.4047 2.51868C40.5385 3.00724 40.2508 3.51172 39.7623 3.64546C39.1742 3.80645 38.5903 3.97767 38.0109 4.15891C37.5275 4.31014 37.013 4.04082 36.8618 3.55739C36.7106 3.07395 36.9799 2.55946 37.4633 2.40824C38.0637 2.22044 38.6686 2.04303 39.278 1.87623C39.7665 1.74248 40.271 2.03012 40.4047 2.51868ZM66.2047 2.51868C66.3384 2.03012 66.8429 1.74248 67.3314 1.87623C67.9408 2.04303 68.5457 2.22044 69.1461 2.40824C69.6295 2.55946 69.8988 3.07395 69.7476 3.55739C69.5964 4.04083 69.0819 4.31014 68.5985 4.15892C68.019 3.97767 67.4352 3.80645 66.8471 3.64546C66.3585 3.51172 66.0709 3.00724 66.2047 2.51868ZM33.353 4.86668C33.5554 5.33102 33.3431 5.87152 32.8787 6.07392C32.32 6.31748 31.7664 6.57073 31.2182 6.83346C30.7614 7.05239 30.2137 6.85958 29.9947 6.4028C29.7758 5.94602 29.9686 5.39824 30.4254 5.17931C30.9933 4.90712 31.5668 4.64474 32.1457 4.3924C32.6101 4.19 33.1506 4.40234 33.353 4.86668ZM73.2564 4.86668C73.4588 4.40234 73.9993 4.19 74.4636 4.3924C75.0425 4.64475 75.6161 4.90712 76.184 5.17932C76.6407 5.39825 76.8336 5.94602 76.6146 6.4028C76.3957 6.85958 75.8479 7.05239 75.3912 6.83346C74.843 6.57073 74.2894 6.31748 73.7307 6.07392C73.2663 5.87152 73.054 5.33102 73.2564 4.86668ZM26.7097 8.2003C26.9763 8.631 26.8433 9.19627 26.4126 9.46288C25.8945 9.78362 25.3825 10.1133 24.8769 10.4519C24.456 10.7336 23.8863 10.6209 23.6045 10.2C23.3227 9.77904 23.4355 9.20938 23.8564 8.92758C24.3801 8.57696 24.9104 8.23542 25.4471 7.9032C25.8778 7.63659 26.4431 7.76961 26.7097 8.2003ZM79.8997 8.2003C80.1663 7.76961 80.7315 7.63659 81.1622 7.9032C81.6989 8.23542 82.2293 8.57696 82.753 8.92758C83.1739 9.20938 83.2867 9.77904 83.0049 10.2C82.7231 10.6209 82.1534 10.7336 81.7325 10.4519C81.2269 10.1133 80.7149 9.78362 80.1968 9.46288C79.7661 9.19627 79.633 8.631 79.8997 8.2003ZM20.6087 12.4461C20.9337 12.8346 20.8823 13.4131 20.4938 13.7381C20.0265 14.129 19.5664 14.528 19.1136 14.935C18.7368 15.2737 18.157 15.2428 17.8183 14.866C17.4797 14.4893 17.5106 13.9094 17.8873 13.5708C18.3563 13.1493 18.8329 12.736 19.3167 12.3312C19.7052 12.0062 20.2837 12.0576 20.6087 12.4461ZM86.0007 12.4461C86.3257 12.0576 86.9041 12.0062 87.2926 12.3312C87.7765 12.736 88.2531 13.1493 88.722 13.5708C89.0988 13.9094 89.1296 14.4893 88.791 14.866C88.4524 15.2428 87.8725 15.2737 87.4958 14.935C87.043 14.528 86.5828 14.129 86.1156 13.7381C85.7271 13.4131 85.6757 12.8346 86.0007 12.4461ZM91.4387 17.5137C91.8154 17.175 92.3953 17.2059 92.7339 17.5827C93.1554 18.0516 93.5687 18.5282 93.9735 19.012C94.2985 19.4006 94.2471 19.979 93.8586 20.304C93.4701 20.629 92.8916 20.5776 92.5666 20.1891C92.1757 19.7219 91.7767 19.2617 91.3697 18.8089C91.031 18.4322 91.0619 17.8523 91.4387 17.5137ZM15.1707 17.5137C15.5474 17.8523 15.5783 18.4322 15.2397 18.8089C14.8327 19.2617 14.4337 19.7219 14.0428 20.1891C13.7178 20.5776 13.1393 20.629 12.7508 20.304C12.3623 19.979 12.3108 19.4005 12.6359 19.012C13.0407 18.5282 13.454 18.0516 13.8755 17.5827C14.2141 17.2059 14.794 17.175 15.1707 17.5137ZM10.5046 23.2998C10.9256 23.5816 11.0383 24.1513 10.7565 24.5722C10.418 25.0778 10.0883 25.5898 9.76757 26.1079C9.50096 26.5386 8.93569 26.6716 8.50499 26.405C8.0743 26.1384 7.94128 25.5732 8.20788 25.1425C8.54011 24.6058 8.88165 24.0754 9.23227 23.5517C9.51406 23.1308 10.0837 23.018 10.5046 23.2998ZM96.1047 23.2998C96.5257 23.018 97.0953 23.1308 97.3771 23.5517C97.7277 24.0754 98.0693 24.6058 98.4015 25.1425C98.6681 25.5732 98.5351 26.1384 98.1044 26.405C97.6737 26.6716 97.1084 26.5386 96.8418 26.1079C96.5211 25.5898 96.1913 25.0778 95.8528 24.5722C95.571 24.1513 95.6838 23.5816 96.1047 23.2998ZM6.70748 29.6901C7.16427 29.909 7.35708 30.4568 7.13815 30.9135C6.87542 31.4617 6.62217 32.0153 6.37861 32.574C6.17621 33.0384 5.6357 33.2507 5.17136 33.0483C4.70703 32.8459 4.49468 32.3054 4.69709 31.841C4.94943 31.2621 5.21181 30.6886 5.484 30.1207C5.70293 29.6639 6.2507 29.4711 6.70748 29.6901ZM99.9019 29.6901C100.359 29.4711 100.906 29.6639 101.125 30.1207C101.398 30.6886 101.66 31.2621 101.912 31.8411C102.115 32.3054 101.902 32.8459 101.438 33.0483C100.974 33.2507 100.433 33.0384 100.231 32.574C99.9872 32.0153 99.734 31.4617 99.4712 30.9135C99.2523 30.4568 99.4451 29.909 99.9019 29.6901ZM3.86208 36.5571C4.34551 36.7083 4.61483 37.2228 4.4636 37.7062C4.28236 38.2857 4.11114 38.8695 3.95015 39.4576C3.81641 39.9462 3.31193 40.2338 2.82337 40.1C2.33481 39.9663 2.04717 39.4618 2.18092 38.9733C2.34772 38.3639 2.52513 37.759 2.71293 37.1586C2.86415 36.6752 3.37864 36.4059 3.86208 36.5571ZM102.747 36.5571C103.231 36.4059 103.745 36.6752 103.896 37.1586C104.084 37.759 104.262 38.3639 104.428 38.9733C104.562 39.4618 104.275 39.9663 103.786 40.1C103.297 40.2338 102.793 39.9462 102.659 39.4576C102.498 38.8695 102.327 38.2857 102.146 37.7062C101.995 37.2228 102.264 36.7083 102.747 36.5571ZM2.03076 43.76C2.53087 43.8404 2.87108 44.3111 2.79065 44.8112C2.69433 45.4101 2.6084 46.0124 2.53305 46.6181C2.47052 47.1208 2.01234 47.4776 1.50968 47.4151C1.00702 47.3525 0.650221 46.8944 0.712751 46.3917C0.790797 45.7643 0.879811 45.1403 0.979595 44.5199C1.06003 44.0198 1.53065 43.6796 2.03076 43.76ZM104.579 43.76C105.079 43.6796 105.549 44.0198 105.63 44.5199C105.73 45.1403 105.819 45.7643 105.897 46.3917C105.959 46.8944 105.602 47.3525 105.1 47.4151C104.597 47.4776 104.139 47.1208 104.076 46.6181C104.001 46.0124 103.915 45.4101 103.819 44.8112C103.738 44.3111 104.079 43.8404 104.579 43.76ZM105.363 51.1498C105.87 51.1409 106.287 51.5442 106.296 52.0507C106.302 52.3665 106.305 52.6829 106.305 53C106.305 53.3171 106.302 53.6335 106.296 53.9493C106.287 54.4558 105.87 54.8591 105.363 54.8502C104.857 54.8413 104.453 54.4235 104.462 53.9171C104.468 53.612 104.47 53.3063 104.47 53C104.47 52.6937 104.468 52.388 104.462 52.0829C104.453 51.5765 104.857 51.1587 105.363 51.1498ZM1.24616 51.1498C1.75261 51.1587 2.15597 51.5765 2.14707 52.0829C2.14171 52.388 2.13902 52.6937 2.13902 53C2.13902 53.3063 2.14171 53.612 2.14707 53.9171C2.15597 54.4235 1.75261 54.8413 1.24616 54.8502C0.739699 54.8591 0.32192 54.4558 0.313021 53.9493C0.307473 53.6335 0.304688 53.3171 0.304688 53C0.304688 52.6829 0.307473 52.3665 0.313021 52.0507C0.32192 51.5442 0.739699 51.1409 1.24616 51.1498ZM1.50968 58.5849C2.01234 58.5224 2.47052 58.8792 2.53305 59.3819C2.6084 59.9876 2.69433 60.5899 2.79065 61.1888C2.87108 61.6889 2.53087 62.1596 2.03076 62.24C1.53065 62.3204 1.06003 61.9802 0.979595 61.4801C0.87981 60.8597 0.790797 60.2357 0.712751 59.6083C0.650221 59.1056 1.00702 58.6475 1.50968 58.5849ZM105.1 58.5849C105.602 58.6475 105.959 59.1056 105.897 59.6083C105.819 60.2357 105.73 60.8597 105.63 61.4801C105.549 61.9802 105.079 62.3204 104.579 62.24C104.079 62.1596 103.738 61.6889 103.819 61.1888C103.915 60.5899 104.001 59.9876 104.076 59.3819C104.139 58.8792 104.597 58.5224 105.1 58.5849ZM2.82337 65.9C3.31193 65.7662 3.8164 66.0538 3.95015 66.5424C4.11114 67.1305 4.28236 67.7143 4.4636 68.2938C4.61482 68.7772 4.34551 69.2917 3.86207 69.4429C3.37864 69.5941 2.86415 69.3248 2.71292 68.8414C2.52513 68.241 2.34772 67.6361 2.18091 67.0267C2.04717 66.5382 2.33481 66.0337 2.82337 65.9ZM103.786 65.9C104.275 66.0337 104.562 66.5382 104.428 67.0267C104.262 67.6361 104.084 68.241 103.896 68.8414C103.745 69.3248 103.231 69.5941 102.747 69.4429C102.264 69.2917 101.995 68.7772 102.146 68.2938C102.327 67.7144 102.498 67.1305 102.659 66.5424C102.793 66.0539 103.297 65.7662 103.786 65.9ZM5.17136 72.9517C5.6357 72.7493 6.17621 72.9616 6.37861 73.426C6.62217 73.9847 6.87542 74.5383 7.13815 75.0865C7.35708 75.5432 7.16426 76.091 6.70748 76.3099C6.2507 76.5289 5.70293 76.3361 5.484 75.8793C5.21181 75.3114 4.94943 74.7379 4.69709 74.159C4.49468 73.6946 4.70702 73.1541 5.17136 72.9517ZM101.438 72.9517C101.902 73.1541 102.115 73.6946 101.912 74.159C101.66 74.7379 101.398 75.3114 101.125 75.8793C100.906 76.3361 100.359 76.5289 99.9019 76.3099C99.4451 76.091 99.2523 75.5433 99.4712 75.0865C99.734 74.5383 99.9872 73.9847 100.231 73.426C100.433 72.9616 100.974 72.7493 101.438 72.9517ZM8.50499 79.595C8.93569 79.3284 9.50096 79.4614 9.76757 79.8921C10.0883 80.4102 10.418 80.9222 10.7565 81.4278C11.0383 81.8487 10.9256 82.4184 10.5046 82.7002C10.0837 82.982 9.51406 82.8692 9.23227 82.4483C8.88165 81.9246 8.54011 81.3942 8.20788 80.8575C7.94128 80.4268 8.0743 79.8616 8.50499 79.595ZM98.1044 79.595C98.5351 79.8616 98.6681 80.4268 98.4015 80.8575C98.0693 81.3942 97.7277 81.9246 97.3771 82.4483C97.0953 82.8692 96.5257 82.982 96.1047 82.7002C95.6838 82.4184 95.571 81.8487 95.8528 81.4278C96.1913 80.9222 96.5211 80.4102 96.8418 79.8921C97.1084 79.4614 97.6737 79.3284 98.1044 79.595ZM12.7508 85.696C13.1393 85.371 13.7178 85.4224 14.0428 85.8109C14.4337 86.2781 14.8327 86.7383 15.2397 87.1911C15.5783 87.5678 15.5475 88.1477 15.1707 88.4864C14.794 88.825 14.2141 88.7941 13.8755 88.4173C13.454 87.9484 13.0407 87.4718 12.6359 86.988C12.3108 86.5995 12.3623 86.021 12.7508 85.696ZM93.8586 85.696C94.2471 86.021 94.2985 86.5995 93.9735 86.988C93.5687 87.4718 93.1554 87.9484 92.7339 88.4173C92.3953 88.7941 91.8154 88.825 91.4387 88.4863C91.0619 88.1477 91.031 87.5678 91.3697 87.1911C91.7767 86.7383 92.1757 86.2781 92.5666 85.8109C92.8916 85.4224 93.4701 85.371 93.8586 85.696ZM88.791 91.134C89.1297 91.5107 89.0988 92.0906 88.722 92.4292C88.2531 92.8507 87.7765 93.264 87.2926 93.6688C86.9041 93.9938 86.3257 93.9424 86.0007 93.5539C85.6757 93.1654 85.7271 92.5869 86.1156 92.2619C86.5828 91.871 87.043 91.472 87.4958 91.065C87.8725 90.7263 88.4524 90.7572 88.791 91.134ZM17.8183 91.134C18.157 90.7572 18.7368 90.7263 19.1136 91.065C19.5664 91.472 20.0265 91.871 20.4938 92.2619C20.8823 92.5869 20.9337 93.1654 20.6087 93.5539C20.2837 93.9424 19.7052 93.9938 19.3167 93.6688C18.8329 93.264 18.3563 92.8507 17.8874 92.4292C17.5106 92.0906 17.4797 91.5107 17.8183 91.134ZM23.6045 95.8C23.8863 95.3791 24.456 95.2664 24.8769 95.5482C25.3825 95.8867 25.8945 96.2164 26.4126 96.5371C26.8433 96.8037 26.9763 97.369 26.7097 97.7997C26.4431 98.2304 25.8778 98.3634 25.4471 98.0968C24.9104 97.7646 24.3801 97.423 23.8564 97.0724C23.4355 96.7906 23.3227 96.221 23.6045 95.8ZM83.0049 95.8C83.2867 96.221 83.1739 96.7906 82.753 97.0724C82.2293 97.423 81.6989 97.7646 81.1622 98.0968C80.7315 98.3634 80.1663 98.2304 79.8997 97.7997C79.633 97.369 79.7661 96.8037 80.1968 96.5371C80.7149 96.2164 81.2269 95.8867 81.7325 95.5482C82.1534 95.2664 82.7231 95.3791 83.0049 95.8ZM29.9947 99.5972C30.2137 99.1404 30.7614 98.9476 31.2182 99.1665C31.7664 99.4293 32.32 99.6825 32.8787 99.9261C33.343 100.128 33.5554 100.669 33.353 101.133C33.1506 101.598 32.6101 101.81 32.1457 101.608C31.5668 101.355 30.9933 101.093 30.4254 100.821C29.9686 100.602 29.7758 100.054 29.9947 99.5972ZM76.6146 99.5972C76.8336 100.054 76.6407 100.602 76.184 100.821C75.6161 101.093 75.0425 101.355 74.4636 101.608C73.9993 101.81 73.4588 101.598 73.2564 101.133C73.054 100.669 73.2663 100.128 73.7307 99.9261C74.2894 99.6825 74.843 99.4293 75.3912 99.1665C75.8479 98.9476 76.3957 99.1404 76.6146 99.5972ZM36.8618 102.443C37.013 101.959 37.5275 101.69 38.0109 101.841C38.5903 102.022 39.1742 102.194 39.7623 102.355C40.2508 102.488 40.5385 102.993 40.4047 103.481C40.271 103.97 39.7665 104.258 39.278 104.124C38.6686 103.957 38.0637 103.78 37.4633 103.592C36.9799 103.441 36.7105 102.926 36.8618 102.443ZM69.7476 102.443C69.8988 102.926 69.6295 103.441 69.1461 103.592C68.5457 103.78 67.9408 103.957 67.3314 104.124C66.8429 104.258 66.3384 103.97 66.2046 103.481C66.0709 102.993 66.3585 102.488 66.8471 102.355C67.4352 102.194 68.019 102.022 68.5985 101.841C69.0819 101.69 69.5964 101.959 69.7476 102.443ZM44.0647 104.274C44.1451 103.774 44.6157 103.434 45.1159 103.514C45.7147 103.61 46.3171 103.696 46.9228 103.772C47.4255 103.834 47.7823 104.292 47.7198 104.795C47.6572 105.298 47.199 105.654 46.6964 105.592C46.069 105.514 45.445 105.425 44.8246 105.325C44.3245 105.245 43.9843 104.774 44.0647 104.274ZM62.5447 104.274C62.6251 104.774 62.2849 105.245 61.7848 105.325C61.1644 105.425 60.5404 105.514 59.913 105.592C59.4103 105.654 58.9521 105.298 58.8896 104.795C58.8271 104.292 59.1839 103.834 59.6866 103.772C60.2922 103.696 60.8946 103.61 61.4935 103.514C61.9936 103.434 62.4642 103.774 62.5447 104.274ZM51.4545 105.059C51.4634 104.552 51.8811 104.149 52.3876 104.158C52.6926 104.163 52.9983 104.166 53.3047 104.166C53.611 104.166 53.9167 104.163 54.2218 104.158C54.7282 104.149 55.146 104.552 55.1549 105.059C55.1638 105.565 54.7605 105.983 54.254 105.992C53.9382 105.997 53.6218 106 53.3047 106C52.9876 106 52.6712 105.997 52.3554 105.992C51.8489 105.983 51.4456 105.565 51.4545 105.059Z" fill="#38868F"/>
<path d="M93.0203 81.25H89.1003V74.11H93.0203V75.35H90.7203V76.92H92.8603V78.16H90.7203V80H93.0203V81.25Z" fill="white"/>
<path d="M81.2487 74.11H82.7287V77.56C82.7287 77.7267 82.7254 77.9133 82.7188 78.12C82.7188 78.3267 82.7154 78.53 82.7087 78.73C82.7021 78.9233 82.6954 79.0933 82.6888 79.24C82.6821 79.38 82.6721 79.4767 82.6587 79.53H82.6987L85.6287 74.11H87.5187V81.25H86.0387V77.82C86.0387 77.64 86.0421 77.4433 86.0487 77.23C86.0554 77.01 86.0621 76.8 86.0687 76.6C86.0754 76.4 86.0821 76.2267 86.0887 76.08C86.1021 75.9267 86.1121 75.8267 86.1188 75.78H86.0887L83.1488 81.25H81.2487V74.11Z" fill="white"/>
<path d="M77.1306 74.11C77.7506 74.11 78.2606 74.17 78.6606 74.29C79.0606 74.4033 79.3573 74.5933 79.5506 74.86C79.744 75.12 79.8406 75.4733 79.8406 75.92C79.8406 76.1867 79.794 76.43 79.7006 76.65C79.6073 76.87 79.4806 77.05 79.3206 77.19C79.1673 77.33 78.994 77.42 78.8006 77.46V77.51C79.0006 77.5567 79.1906 77.64 79.3706 77.76C79.5573 77.88 79.7073 78.0533 79.8206 78.28C79.934 78.5067 79.9906 78.8067 79.9906 79.18C79.9906 79.6133 79.8873 79.9867 79.6806 80.3C79.4806 80.6067 79.194 80.8433 78.8206 81.01C78.4473 81.17 78.0006 81.25 77.4806 81.25H74.9206V74.11H77.1306ZM77.2206 76.94C77.5806 76.94 77.8306 76.87 77.9706 76.73C78.1106 76.59 78.1806 76.3867 78.1806 76.12C78.1806 75.8467 78.0973 75.65 77.9306 75.53C77.7706 75.41 77.5173 75.35 77.1706 75.35H76.5406V76.94H77.2206ZM76.5406 78.14V80H77.3206C77.694 80 77.954 79.9133 78.1006 79.74C78.2473 79.56 78.3206 79.3233 78.3206 79.03C78.3206 78.85 78.2873 78.6933 78.2206 78.56C78.1606 78.4267 78.054 78.3233 77.9006 78.25C77.754 78.1767 77.5473 78.14 77.2806 78.14H76.5406Z" fill="white"/>
<path d="M72.1926 81.25H70.5726V75.37H68.8426V74.11H73.9226V75.37H72.1926V81.25Z" fill="white"/>
<path d="M66.2974 75.27C66.0574 75.27 65.8408 75.3267 65.6474 75.44C65.4608 75.5533 65.3008 75.7167 65.1674 75.93C65.0341 76.1367 64.9341 76.39 64.8674 76.69C64.8008 76.99 64.7674 77.3267 64.7674 77.7C64.7674 78.2067 64.8241 78.64 64.9374 79C65.0508 79.3533 65.2241 79.6233 65.4574 79.81C65.6908 79.9967 65.9874 80.09 66.3474 80.09C66.6341 80.09 66.9141 80.0567 67.1874 79.99C67.4674 79.9233 67.7574 79.83 68.0574 79.71V80.98C67.7641 81.1067 67.4674 81.2 67.1674 81.26C66.8674 81.32 66.5408 81.35 66.1874 81.35C65.4741 81.35 64.8908 81.2 64.4374 80.9C63.9841 80.5933 63.6474 80.1667 63.4274 79.62C63.2141 79.0667 63.1074 78.4233 63.1074 77.69C63.1074 77.15 63.1774 76.6567 63.3174 76.21C63.4574 75.7567 63.6641 75.3667 63.9374 75.04C64.2108 74.7133 64.5441 74.46 64.9374 74.28C65.3374 74.1 65.7941 74.01 66.3074 74.01C66.6408 74.01 66.9908 74.0567 67.3574 74.15C67.7308 74.2367 68.0541 74.3567 68.3274 74.51L67.8174 75.74C67.5708 75.6133 67.3208 75.5033 67.0674 75.41C66.8208 75.3167 66.5641 75.27 66.2974 75.27Z" fill="white"/>
<path d="M59.2693 74.11C59.8893 74.11 60.3993 74.17 60.7993 74.29C61.1993 74.4033 61.496 74.5933 61.6893 74.86C61.8826 75.12 61.9793 75.4733 61.9793 75.92C61.9793 76.1867 61.9326 76.43 61.8393 76.65C61.746 76.87 61.6193 77.05 61.4593 77.19C61.306 77.33 61.1326 77.42 60.9393 77.46V77.51C61.1393 77.5567 61.3293 77.64 61.5093 77.76C61.696 77.88 61.846 78.0533 61.9593 78.28C62.0726 78.5067 62.1293 78.8067 62.1293 79.18C62.1293 79.6133 62.026 79.9867 61.8193 80.3C61.6193 80.6067 61.3326 80.8433 60.9593 81.01C60.586 81.17 60.1393 81.25 59.6193 81.25H57.0593V74.11H59.2693ZM59.3593 76.94C59.7193 76.94 59.9693 76.87 60.1093 76.73C60.2493 76.59 60.3193 76.3867 60.3193 76.12C60.3193 75.8467 60.236 75.65 60.0693 75.53C59.9093 75.41 59.656 75.35 59.3093 75.35H58.6793V76.94H59.3593ZM58.6793 78.14V80H59.4593C59.8326 80 60.0926 79.9133 60.2393 79.74C60.386 79.56 60.4593 79.3233 60.4593 79.03C60.4593 78.85 60.426 78.6933 60.3593 78.56C60.2993 78.4267 60.1926 78.3233 60.0393 78.25C59.8926 78.1767 59.686 78.14 59.4193 78.14H58.6793Z" fill="white"/>
<path d="M54.2507 79.17C54.064 79.63 53.8607 80.0233 53.6407 80.35C53.4207 80.6767 53.144 80.9267 52.8107 81.1C52.4774 81.2667 52.0374 81.35 51.4907 81.35C51.3307 81.35 51.1474 81.3367 50.9407 81.31C50.734 81.2833 50.544 81.2467 50.3707 81.2V79.86C50.5307 79.9267 50.704 79.9733 50.8907 80C51.0774 80.0267 51.2507 80.04 51.4107 80.04C51.604 80.04 51.7674 80.0067 51.9007 79.94C52.034 79.8733 52.144 79.7867 52.2307 79.68C52.3174 79.5667 52.3874 79.44 52.4407 79.3L50.0607 74.11H51.7907L52.8807 76.82C52.934 76.9467 52.9807 77.0733 53.0207 77.2C53.0674 77.3267 53.1074 77.4533 53.1407 77.58C53.1807 77.7 53.214 77.8233 53.2407 77.95H53.2907C53.324 77.83 53.3574 77.7067 53.3907 77.58C53.4307 77.4467 53.4707 77.3167 53.5107 77.19C53.5574 77.0567 53.604 76.9267 53.6507 76.8L54.6307 74.11H56.3307L54.2507 79.17Z" fill="white"/>
<path d="M49.1685 81.25H47.5485V78.49C47.1418 78.6367 46.7718 78.7467 46.4385 78.82C46.1118 78.8933 45.7885 78.93 45.4685 78.93C44.8418 78.93 44.3485 78.77 43.9885 78.45C43.6352 78.1233 43.4585 77.66 43.4585 77.06V74.11H45.0785V76.63C45.0785 76.9767 45.1452 77.2367 45.2785 77.41C45.4185 77.5833 45.6552 77.67 45.9885 77.67C46.2152 77.67 46.4552 77.64 46.7085 77.58C46.9618 77.52 47.2418 77.43 47.5485 77.31V74.11H49.1685V81.25Z" fill="white"/>
<path d="M42.6338 77.67C42.6338 78.2233 42.5705 78.7267 42.4438 79.18C42.3172 79.6267 42.1238 80.0133 41.8638 80.34C41.6038 80.6667 41.2672 80.9167 40.8538 81.09C40.4472 81.2633 39.9638 81.35 39.4038 81.35C38.8505 81.35 38.3705 81.2633 37.9638 81.09C37.5572 80.91 37.2205 80.66 36.9538 80.34C36.6938 80.0133 36.4972 79.6233 36.3638 79.17C36.2372 78.7167 36.1738 78.2133 36.1738 77.66C36.1738 76.92 36.2872 76.2767 36.5138 75.73C36.7472 75.1833 37.1038 74.76 37.5838 74.46C38.0638 74.1533 38.6738 74 39.4138 74C40.1605 74 40.7705 74.1533 41.2438 74.46C41.7172 74.76 42.0672 75.1867 42.2938 75.74C42.5205 76.2867 42.6338 76.93 42.6338 77.67ZM37.8738 77.67C37.8738 78.17 37.9238 78.6 38.0238 78.96C38.1305 79.32 38.2972 79.5967 38.5238 79.79C38.7505 79.9833 39.0438 80.08 39.4038 80.08C39.7705 80.08 40.0638 79.9833 40.2838 79.79C40.5105 79.5967 40.6738 79.32 40.7738 78.96C40.8805 78.6 40.9338 78.17 40.9338 77.67C40.9338 76.9167 40.8138 76.3267 40.5738 75.9C40.3405 75.4733 39.9538 75.26 39.4138 75.26C39.0472 75.26 38.7505 75.3567 38.5238 75.55C38.2972 75.7433 38.1305 76.02 38.0238 76.38C37.9238 76.74 37.8738 77.17 37.8738 77.67Z" fill="white"/>
<path d="M30.3397 81.25L28.8497 75.65H28.8097C28.8164 75.7833 28.8264 75.9833 28.8397 76.25C28.853 76.5167 28.8664 76.8033 28.8797 77.11C28.893 77.41 28.8997 77.6833 28.8997 77.93V81.25H27.4597V74.11H29.6397L31.1297 79.57H31.1597L32.6897 74.11H34.8697V81.25H33.3697V77.87C33.3697 77.6433 33.373 77.3833 33.3797 77.09C33.3864 76.7967 33.3964 76.52 33.4097 76.26C33.423 75.9933 33.433 75.7933 33.4397 75.66H33.3997L31.8597 81.25H30.3397Z" fill="white"/>
<path d="M24.9193 81.25L24.5093 79.55H22.1993L21.7793 81.25H20.0193L22.2993 74.08H24.3793L26.6693 81.25H24.9193ZM23.6893 76.62C23.6493 76.48 23.6093 76.3333 23.5693 76.18C23.5293 76.0267 23.4893 75.8667 23.4493 75.7C23.416 75.5333 23.3826 75.3633 23.3493 75.19C23.3226 75.3633 23.2893 75.5367 23.2493 75.71C23.2093 75.8767 23.1693 76.0367 23.1293 76.19C23.096 76.3433 23.0593 76.4867 23.0193 76.62L22.5593 78.28H24.1593L23.6893 76.62Z" fill="white"/>
<path d="M17.6841 75.27C17.4441 75.27 17.2275 75.3267 17.0341 75.44C16.8475 75.5533 16.6875 75.7167 16.5541 75.93C16.4208 76.1367 16.3208 76.39 16.2541 76.69C16.1875 76.99 16.1541 77.3267 16.1541 77.7C16.1541 78.2067 16.2108 78.64 16.3241 79C16.4375 79.3533 16.6108 79.6233 16.8441 79.81C17.0775 79.9967 17.3741 80.09 17.7341 80.09C18.0208 80.09 18.3008 80.0567 18.5741 79.99C18.8541 79.9233 19.1441 79.83 19.4441 79.71V80.98C19.1508 81.1067 18.8541 81.2 18.5541 81.26C18.2541 81.32 17.9275 81.35 17.5741 81.35C16.8608 81.35 16.2775 81.2 15.8241 80.9C15.3708 80.5933 15.0341 80.1667 14.8141 79.62C14.6008 79.0667 14.4941 78.4233 14.4941 77.69C14.4941 77.15 14.5641 76.6567 14.7041 76.21C14.8441 75.7567 15.0508 75.3667 15.3241 75.04C15.5975 74.7133 15.9308 74.46 16.3241 74.28C16.7241 74.1 17.1808 74.01 17.6941 74.01C18.0275 74.01 18.3775 74.0567 18.7441 74.15C19.1175 74.2367 19.4408 74.3567 19.7141 74.51L19.2041 75.74C18.9575 75.6133 18.7075 75.5033 18.4541 75.41C18.2075 75.3167 17.9508 75.27 17.6841 75.27Z" fill="white"/>
<path d="M82.3318 71.25H78.4118V64.11H82.3318V65.35H80.0318V66.92H82.1718V68.16H80.0318V70H82.3318V71.25Z" fill="white"/>
<path d="M77.117 71.25H73.197V64.11H77.117V65.35H74.817V66.92H76.957V68.16H74.817V70H77.117V71.25Z" fill="white"/>
<path d="M71.6214 71.25H63.0114V64.11H64.6314V69.99H66.5114V64.11H68.1214V69.99H70.0014V64.11H71.6214V71.25Z" fill="white"/>
<path d="M61.7012 67.67C61.7012 68.2233 61.6379 68.7267 61.5112 69.18C61.3845 69.6267 61.1912 70.0133 60.9312 70.34C60.6712 70.6667 60.3345 70.9167 59.9212 71.09C59.5145 71.2633 59.0312 71.35 58.4712 71.35C57.9179 71.35 57.4379 71.2633 57.0312 71.09C56.6245 70.91 56.2879 70.66 56.0212 70.34C55.7612 70.0133 55.5645 69.6233 55.4312 69.17C55.3045 68.7167 55.2412 68.2133 55.2412 67.66C55.2412 66.92 55.3545 66.2767 55.5812 65.73C55.8145 65.1833 56.1712 64.76 56.6512 64.46C57.1312 64.1533 57.7412 64 58.4812 64C59.2279 64 59.8379 64.1533 60.3112 64.46C60.7845 64.76 61.1345 65.1867 61.3612 65.74C61.5879 66.2867 61.7012 66.93 61.7012 67.67ZM56.9412 67.67C56.9412 68.17 56.9912 68.6 57.0912 68.96C57.1979 69.32 57.3645 69.5967 57.5912 69.79C57.8179 69.9833 58.1112 70.08 58.4712 70.08C58.8379 70.08 59.1312 69.9833 59.3512 69.79C59.5779 69.5967 59.7412 69.32 59.8412 68.96C59.9479 68.6 60.0012 68.17 60.0012 67.67C60.0012 66.9167 59.8812 66.3267 59.6412 65.9C59.4079 65.4733 59.0212 65.26 58.4812 65.26C58.1145 65.26 57.8179 65.3567 57.5912 65.55C57.3645 65.7433 57.1979 66.02 57.0912 66.38C56.9912 66.74 56.9412 67.17 56.9412 67.67Z" fill="white"/>
<path d="M51.8235 64.11C52.6835 64.11 53.3168 64.31 53.7235 64.71C54.1368 65.1033 54.3435 65.6467 54.3435 66.34C54.3435 66.6533 54.3001 66.9533 54.2135 67.24C54.1268 67.52 53.9835 67.7733 53.7835 68C53.5835 68.22 53.3168 68.3933 52.9835 68.52C52.6568 68.6467 52.2535 68.71 51.7735 68.71H51.2135V71.25H49.5935V64.11H51.8235ZM51.7735 65.35H51.2135V67.47H51.6235C51.8368 67.47 52.0268 67.4333 52.1935 67.36C52.3601 67.2867 52.4901 67.17 52.5835 67.01C52.6768 66.85 52.7235 66.6433 52.7235 66.39C52.7235 66.0367 52.6435 65.7767 52.4835 65.61C52.3301 65.4367 52.0935 65.35 51.7735 65.35Z" fill="white"/>
<path d="M48.2832 67.67C48.2832 68.2233 48.2199 68.7267 48.0932 69.18C47.9666 69.6267 47.7732 70.0133 47.5132 70.34C47.2532 70.6667 46.9166 70.9167 46.5032 71.09C46.0966 71.2633 45.6132 71.35 45.0532 71.35C44.4999 71.35 44.0199 71.2633 43.6132 71.09C43.2066 70.91 42.8699 70.66 42.6032 70.34C42.3432 70.0133 42.1466 69.6233 42.0132 69.17C41.8866 68.7167 41.8232 68.2133 41.8232 67.66C41.8232 66.92 41.9366 66.2767 42.1632 65.73C42.3966 65.1833 42.7532 64.76 43.2332 64.46C43.7132 64.1533 44.3232 64 45.0632 64C45.8099 64 46.4199 64.1533 46.8932 64.46C47.3666 64.76 47.7166 65.1867 47.9432 65.74C48.1699 66.2867 48.2832 66.93 48.2832 67.67ZM43.5232 67.67C43.5232 68.17 43.5732 68.6 43.6732 68.96C43.7799 69.32 43.9466 69.5967 44.1732 69.79C44.3999 69.9833 44.6932 70.08 45.0532 70.08C45.4199 70.08 45.7132 69.9833 45.9332 69.79C46.1599 69.5967 46.3232 69.32 46.4232 68.96C46.5299 68.6 46.5832 68.17 46.5832 67.67C46.5832 66.9167 46.4632 66.3267 46.2232 65.9C45.9899 65.4733 45.6032 65.26 45.0632 65.26C44.6966 65.26 44.3999 65.3567 44.1732 65.55C43.9466 65.7433 43.7799 66.02 43.6732 66.38C43.5732 66.74 43.5232 67.17 43.5232 67.67Z" fill="white"/>
<path d="M41.4856 71.25H39.6256L38.1856 68.55L36.7556 71.25H34.9756L37.2056 67.57L35.1156 64.11H36.9056L38.2356 66.68L39.5256 64.11H41.3256L39.2056 67.65L41.4856 71.25Z" fill="white"/>
<path d="M25.4626 64.11H26.9426V67.56C26.9426 67.7267 26.9393 67.9133 26.9326 68.12C26.9326 68.3267 26.9293 68.53 26.9226 68.73C26.9159 68.9233 26.9093 69.0933 26.9026 69.24C26.8959 69.38 26.8859 69.4767 26.8726 69.53H26.9126L29.8426 64.11H31.7326V71.25H30.2526V67.82C30.2526 67.64 30.2559 67.4433 30.2626 67.23C30.2693 67.01 30.2759 66.8 30.2826 66.6C30.2893 66.4 30.2959 66.2267 30.3026 66.08C30.3159 65.9267 30.3259 65.8267 30.3326 65.78H30.3026L27.3626 71.25H25.4626V64.11Z" fill="white"/>
<path d="M79.2752 60.25H75.3552V53.11H79.2752V54.35H76.9752V55.92H79.1152V57.16H76.9752V59H79.2752V60.25Z" fill="white"/>
<path d="M69.3396 60.25V53.11H70.9596V55.85H71.5696C72.1696 55.85 72.6629 55.9433 73.0496 56.13C73.4429 56.3167 73.7329 56.5733 73.9196 56.9C74.1062 57.2267 74.1996 57.6 74.1996 58.02C74.1996 58.4867 74.0962 58.8867 73.8896 59.22C73.6829 59.5533 73.3762 59.81 72.9696 59.99C72.5696 60.1633 72.0662 60.25 71.4596 60.25H69.3396ZM71.4396 59.01C71.8062 59.01 72.0862 58.9367 72.2796 58.79C72.4729 58.6433 72.5696 58.3867 72.5696 58.02C72.5696 57.7667 72.5196 57.5733 72.4196 57.44C72.3262 57.3067 72.1929 57.2167 72.0196 57.17C71.8462 57.1167 71.6429 57.09 71.4096 57.09H70.9596V59.01H71.4396Z" fill="white"/>
<path d="M65.2214 53.11C65.8414 53.11 66.3514 53.17 66.7514 53.29C67.1514 53.4033 67.4481 53.5933 67.6414 53.86C67.8348 54.12 67.9314 54.4733 67.9314 54.92C67.9314 55.1867 67.8848 55.43 67.7914 55.65C67.6981 55.87 67.5714 56.05 67.4114 56.19C67.2581 56.33 67.0848 56.42 66.8914 56.46V56.51C67.0914 56.5567 67.2814 56.64 67.4614 56.76C67.6481 56.88 67.7981 57.0533 67.9114 57.28C68.0248 57.5067 68.0814 57.8067 68.0814 58.18C68.0814 58.6133 67.9781 58.9867 67.7714 59.3C67.5714 59.6067 67.2848 59.8433 66.9114 60.01C66.5381 60.17 66.0914 60.25 65.5714 60.25H63.0114V53.11H65.2214ZM65.3114 55.94C65.6714 55.94 65.9214 55.87 66.0614 55.73C66.2014 55.59 66.2714 55.3867 66.2714 55.12C66.2714 54.8467 66.1881 54.65 66.0214 54.53C65.8614 54.41 65.6081 54.35 65.2614 54.35H64.6314V55.94H65.3114ZM64.6314 57.14V59H65.4114C65.7848 59 66.0448 58.9133 66.1914 58.74C66.3381 58.56 66.4114 58.3233 66.4114 58.03C66.4114 57.85 66.3781 57.6933 66.3114 57.56C66.2514 57.4267 66.1448 57.3233 65.9914 57.25C65.8448 57.1767 65.6381 57.14 65.3714 57.14H64.6314Z" fill="white"/>
<path d="M61.7012 56.67C61.7012 57.2233 61.6379 57.7267 61.5112 58.18C61.3845 58.6267 61.1912 59.0133 60.9312 59.34C60.6712 59.6667 60.3345 59.9167 59.9212 60.09C59.5145 60.2633 59.0312 60.35 58.4712 60.35C57.9179 60.35 57.4379 60.2633 57.0312 60.09C56.6245 59.91 56.2879 59.66 56.0212 59.34C55.7612 59.0133 55.5645 58.6233 55.4312 58.17C55.3045 57.7167 55.2412 57.2133 55.2412 56.66C55.2412 55.92 55.3545 55.2767 55.5812 54.73C55.8145 54.1833 56.1712 53.76 56.6512 53.46C57.1312 53.1533 57.7412 53 58.4812 53C59.2279 53 59.8379 53.1533 60.3112 53.46C60.7845 53.76 61.1345 54.1867 61.3612 54.74C61.5879 55.2867 61.7012 55.93 61.7012 56.67ZM56.9412 56.67C56.9412 57.17 56.9912 57.6 57.0912 57.96C57.1979 58.32 57.3645 58.5967 57.5912 58.79C57.8179 58.9833 58.1112 59.08 58.4712 59.08C58.8379 59.08 59.1312 58.9833 59.3512 58.79C59.5779 58.5967 59.7412 58.32 59.8412 57.96C59.9479 57.6 60.0012 57.17 60.0012 56.67C60.0012 55.9167 59.8812 55.3267 59.6412 54.9C59.4079 54.4733 59.0212 54.26 58.4812 54.26C58.1145 54.26 57.8179 54.3567 57.5912 54.55C57.3645 54.7433 57.1979 55.02 57.0912 55.38C56.9912 55.74 56.9412 56.17 56.9412 56.67Z" fill="white"/>
<path d="M51.8235 53.11C52.6835 53.11 53.3168 53.31 53.7235 53.71C54.1368 54.1033 54.3435 54.6467 54.3435 55.34C54.3435 55.6533 54.3001 55.9533 54.2135 56.24C54.1268 56.52 53.9835 56.7733 53.7835 57C53.5835 57.22 53.3168 57.3933 52.9835 57.52C52.6568 57.6467 52.2535 57.71 51.7735 57.71H51.2135V60.25H49.5935V53.11H51.8235ZM51.7735 54.35H51.2135V56.47H51.6235C51.8368 56.47 52.0268 56.4333 52.1935 56.36C52.3601 56.2867 52.4901 56.17 52.5835 56.01C52.6768 55.85 52.7235 55.6433 52.7235 55.39C52.7235 55.0367 52.6435 54.7767 52.4835 54.61C52.3301 54.4367 52.0935 54.35 51.7735 54.35Z" fill="white"/>
<path d="M48.2832 56.67C48.2832 57.2233 48.2199 57.7267 48.0932 58.18C47.9666 58.6267 47.7732 59.0133 47.5132 59.34C47.2532 59.6667 46.9166 59.9167 46.5032 60.09C46.0966 60.2633 45.6132 60.35 45.0532 60.35C44.4999 60.35 44.0199 60.2633 43.6132 60.09C43.2066 59.91 42.8699 59.66 42.6032 59.34C42.3432 59.0133 42.1466 58.6233 42.0132 58.17C41.8866 57.7167 41.8232 57.2133 41.8232 56.66C41.8232 55.92 41.9366 55.2767 42.1632 54.73C42.3966 54.1833 42.7532 53.76 43.2332 53.46C43.7132 53.1533 44.3232 53 45.0632 53C45.8099 53 46.4199 53.1533 46.8932 53.46C47.3666 53.76 47.7166 54.1867 47.9432 54.74C48.1699 55.2867 48.2832 55.93 48.2832 56.67ZM43.5232 56.67C43.5232 57.17 43.5732 57.6 43.6732 57.96C43.7799 58.32 43.9466 58.5967 44.1732 58.79C44.3999 58.9833 44.6932 59.08 45.0532 59.08C45.4199 59.08 45.7132 58.9833 45.9332 58.79C46.1599 58.5967 46.3232 58.32 46.4232 57.96C46.5299 57.6 46.5832 57.17 46.5832 56.67C46.5832 55.9167 46.4632 55.3267 46.2232 54.9C45.9899 54.4733 45.6032 54.26 45.0632 54.26C44.6966 54.26 44.3999 54.3567 44.1732 54.55C43.9466 54.7433 43.7799 55.02 43.6732 55.38C43.5732 55.74 43.5232 56.17 43.5232 56.67Z" fill="white"/>
<path d="M40.2311 53.11V58.99H41.1311V62.33H39.5711V60.25H35.5111V62.33H33.9411V58.99H34.4811C34.6745 58.6167 34.8511 58.2233 35.0111 57.81C35.1778 57.3967 35.3278 56.9533 35.4611 56.48C35.5945 56.0067 35.7078 55.4933 35.8011 54.94C35.9011 54.38 35.9811 53.77 36.0411 53.11H40.2311ZM37.3311 54.37C37.2911 54.7167 37.2345 55.0867 37.1611 55.48C37.0945 55.8667 37.0111 56.2633 36.9111 56.67C36.8178 57.0767 36.7078 57.4767 36.5811 57.87C36.4611 58.2633 36.3278 58.6367 36.1811 58.99H38.6111V54.37H37.3311Z" fill="white"/>
<path d="M33.2492 54.78C33.2492 55.26 33.0992 55.6467 32.7992 55.94C32.5059 56.2333 32.1092 56.4167 31.6092 56.49V56.52C32.2226 56.5867 32.6859 56.77 32.9992 57.07C33.3192 57.3633 33.4792 57.7467 33.4792 58.22C33.4792 58.6333 33.3726 59.0033 33.1592 59.33C32.9459 59.65 32.6292 59.9 32.2092 60.08C31.7892 60.26 31.2726 60.35 30.6592 60.35C30.1126 60.35 29.6359 60.3167 29.2292 60.25C28.8292 60.1833 28.4859 60.0867 28.1992 59.96V58.69C28.3926 58.79 28.6092 58.8767 28.8492 58.95C29.0959 59.0167 29.3426 59.07 29.5892 59.11C29.8426 59.1433 30.0759 59.16 30.2892 59.16C30.8426 59.16 31.2392 59.07 31.4792 58.89C31.7259 58.7033 31.8492 58.4433 31.8492 58.11C31.8492 57.77 31.6859 57.5233 31.3592 57.37C31.0392 57.21 30.5859 57.13 29.9992 57.13H29.2892V55.95H29.9292C30.3892 55.95 30.7426 55.9133 30.9892 55.84C31.2359 55.7667 31.4059 55.66 31.4992 55.52C31.5992 55.38 31.6492 55.2133 31.6492 55.02C31.6492 54.7733 31.5592 54.58 31.3792 54.44C31.2059 54.2933 30.9326 54.22 30.5592 54.22C30.2459 54.22 29.9426 54.2733 29.6492 54.38C29.3626 54.4867 29.0926 54.6267 28.8392 54.8L28.1492 53.79C28.3892 53.63 28.6392 53.4933 28.8992 53.38C29.1592 53.26 29.4459 53.17 29.7592 53.11C30.0726 53.0433 30.4292 53.01 30.8292 53.01C31.3359 53.01 31.7692 53.0867 32.1292 53.24C32.4892 53.3933 32.7659 53.6033 32.9592 53.87C33.1526 54.13 33.2492 54.4333 33.2492 54.78Z" fill="white"/>
<mask id="mask0_3024_2642" style="mask-type:luminance" maskUnits="userSpaceOnUse" x="35" y="11" width="37" height="37">
<path d="M71.6956 11.5994H35.2949V48H71.6956V11.5994Z" fill="white"/>
</mask>
<g mask="url(#mask0_3024_2642)">
<path d="M50.2636 23.0578C52.0118 23.0578 53.4304 21.6399 53.4304 19.8908C53.4304 18.1418 52.0118 16.7239 50.2636 16.7239C48.5143 16.7239 47.0957 18.1418 47.0957 19.8908C47.0957 21.6399 48.5143 23.0578 50.2636 23.0578Z" fill="white"/>
<path d="M67.7708 39.8203C66.1298 36.9429 63.6707 34.9796 60.6505 33.7425C60.4644 29.9973 58.6434 26.4719 55.7212 24.0927C54.2379 22.8841 52.1903 22.6546 50.7444 24.1194C50.6554 24.209 50.5736 24.3065 50.4967 24.407C47.5159 22.7091 44.2338 21.4375 41.2034 20.4093C38.9051 19.6293 37.9263 23.2559 40.2054 24.0291C43.6362 25.1924 47.4067 26.7002 50.5463 28.8862C50.617 28.9589 50.6908 29.0303 50.7717 29.0963C52.5705 30.5605 53.6878 32.3008 53.6262 34.6575C53.615 35.042 53.6595 35.3909 53.7434 35.71C53.5473 36.9259 53.2631 38.1285 52.9052 39.3075C51.795 38.1606 50.7616 36.9483 49.9022 35.5846C48.2925 33.0335 44.2318 35.3866 45.8506 37.9523C47.5756 40.6887 49.8263 42.9558 52.1924 45.1339C53.1863 46.0501 55.2591 46.121 55.8769 44.6592C56.8052 42.4629 57.5443 40.2503 58.0438 37.9686C58.1954 37.931 58.3431 37.8808 58.4897 37.8269C58.6484 37.9347 58.8234 38.028 59.0195 38.1036C60.5322 38.6819 61.7849 39.6066 62.7728 40.8141C61.6919 41.9416 60.5069 42.9461 59.0842 43.6698C56.3876 45.0431 58.7627 49.0906 61.4523 47.7202C63.8001 46.5254 65.7233 44.6652 67.4008 42.6615C68.0954 41.8386 68.328 40.8001 67.7708 39.8203Z" fill="white"/>
<path d="M48.2875 16.2432C48.7293 16.0797 49.2056 15.7522 49.703 15.7522C50.8254 15.7522 51.8416 16.2051 52.5827 16.9359C52.1004 15.5989 51.6312 14.2564 51.1914 12.9038C50.4492 10.6105 46.8243 11.5921 47.5716 13.9016C47.8011 14.6071 48.0458 15.542 48.2875 16.2432Z" fill="white"/>
</g>
</svg>
