<svg width="24" height="24" viewBox="0 0 24 24" fill="none" xmlns="http://www.w3.org/2000/svg">
<path d="M17.2 22.5C16.07 22.5 14.88 22.23 13.65 21.71C12.45 21.2 11.24 20.5 10.06 19.65C8.89 18.79 7.75 17.83 6.69 16.78C5.63 15.71 4.67 14.58 3.82 13.42C2.96 12.22 2.27 11.02 1.78 9.86001C1.26 8.63001 1 7.43001 1 6.30001C1 5.52001 1.14 4.78001 1.41 4.09001C1.69 3.37001 2.14 2.72001 2.74 2.15001C3.51 1.39001 4.38 1.01001 5.33 1.01001C5.73 1.01001 6.12 1.10001 6.46 1.26001C6.85 1.44001 7.18 1.71001 7.42 2.07001L9.73 5.33001C9.94 5.62001 10.1 5.90001 10.21 6.18001C10.34 6.48001 10.41 6.78001 10.41 7.07001C10.41 7.45001 10.3 7.82001 10.09 8.17001C9.94 8.44001 9.71 8.73001 9.42 9.02001L8.74 9.73001C8.74 9.73001 8.76 9.78001 8.77 9.80001C8.89 10.01 9.13 10.36 9.59 10.91C10.08 11.47 10.54 11.98 11 12.45C11.6 13.04 12.08 13.48 12.54 13.87C13.11 14.35 13.48 14.58 13.7 14.7H13.73L14.42 14.03C14.73 13.72 15.02 13.49 15.32 13.34C15.87 13 16.57 12.94 17.27 13.23C17.53 13.34 17.81 13.49 18.11 13.69L21.43 16.05C21.8 16.3 22.07 16.62 22.23 17C22.38 17.38 22.45 17.73 22.45 18.08C22.45 18.56 22.34 19.04 22.13 19.49C21.92 19.94 21.66 20.33 21.33 20.69C20.76 21.32 20.13 21.77 19.42 22.06C18.73 22.35 17.97 22.5 17.19 22.5H17.2ZM5.34 2.50001C4.79 2.50001 4.28 2.74001 3.79 3.22001C3.34 3.65001 3.01 4.12001 2.81 4.63001C2.61 5.14001 2.5 5.70001 2.5 6.29001C2.5 7.22001 2.72 8.23001 3.16 9.27001C3.61 10.33 4.24 11.43 5.04 12.53C5.84 13.63 6.75 14.7 7.75 15.71C8.75 16.7 9.83 17.62 10.94 18.43C12.02 19.22 13.13 19.86 14.23 20.32C15.94 21.05 17.54 21.22 18.86 20.67C19.37 20.46 19.82 20.14 20.23 19.68C20.46 19.43 20.64 19.15 20.79 18.84C20.91 18.59 20.97 18.33 20.97 18.07C20.97 17.91 20.94 17.75 20.86 17.57C20.83 17.51 20.77 17.4 20.58 17.27L17.26 14.91C17.06 14.77 16.88 14.67 16.71 14.6C16.49 14.51 16.4 14.42 16.06 14.63C15.86 14.73 15.68 14.88 15.48 15.08L14.72 15.83C14.34 16.21 13.74 16.3 13.27 16.13L13 16.01C12.59 15.79 12.11 15.45 11.58 15C11.09 14.58 10.59 14.12 9.95 13.49C9.46 12.99 8.97 12.46 8.46 11.87C7.99 11.31 7.65 10.84 7.44 10.46L7.32 10.16C7.26 9.94001 7.24 9.81001 7.24 9.67001C7.24 9.31001 7.37 8.99001 7.62 8.74001L8.37 7.96001C8.57 7.76001 8.72 7.57001 8.82 7.40001C8.9 7.27001 8.93 7.16001 8.93 7.06001C8.93 7.02001 8.93 6.91001 8.85 6.75001C8.78 6.57001 8.67 6.39001 8.53 6.19001L6.21 2.92001C6.11 2.78001 5.99 2.68001 5.84 2.61001C5.68 2.53001 5.52 2.50001 5.34 2.50001Z" fill="#2A5199"/>
<path fill-rule="evenodd" clip-rule="evenodd" d="M14.1992 3.75C14.1992 3.34 14.5392 3 14.9492 3H19.7492C20.1592 3 20.4992 3.34 20.4992 3.75V8.55C20.4992 8.96 20.1592 9.3 19.7492 9.3C19.3392 9.3 18.9992 8.96 18.9992 8.55V4.5H14.9492C14.5392 4.5 14.1992 4.16 14.1992 3.75Z" fill="#2A5199"/>
</svg>
